<svg width="15" height="15" viewBox="0 0 15 15" fill="none" xmlns="http://www.w3.org/2000/svg">
<mask id="mask0_2072_3742" style="mask-type:luminance" maskUnits="userSpaceOnUse" x="0" y="0" width="15" height="15">
<path d="M15 0H0V15H15V0Z" fill="white"/>
</mask>
<g mask="url(#mask0_2072_3742)">
<mask id="mask1_2072_3742" style="mask-type:luminance" maskUnits="userSpaceOnUse" x="0" y="0" width="15" height="15">
<path d="M0 0H15V15H0V0Z" fill="white"/>
</mask>
<g mask="url(#mask1_2072_3742)">
<path d="M-1.58926 6.32254C-1.90278 6.04654 -2.30629 5.89455 -2.72397 5.89513C-3.66985 5.89513 -4.4375 6.65394 -4.4375 7.58873C-4.4375 8.52366 -3.66985 9.28228 -2.72397 9.28228C-2.28809 9.28228 -1.89103 9.12013 -1.58926 8.85507C-1.49359 8.974 -1.38464 9.08166 -1.26456 9.17587C-1.54277 9.48323 -1.69685 9.88295 -1.69691 10.2975C-1.69691 11.2323 -0.929262 11.9911 0.0166193 11.9911C0.9625 11.9911 1.73015 11.2323 1.73015 10.2975C1.73015 9.8666 1.56603 9.47413 1.2978 9.17587C1.41789 9.08166 1.52682 8.974 1.6225 8.85507C1.93605 9.13097 2.33955 9.28291 2.75721 9.28228C3.70309 9.28228 4.47074 8.52347 4.47074 7.58873C4.47074 6.65394 3.70309 5.89513 2.75721 5.89513C2.32133 5.89513 1.92427 6.05747 1.6225 6.32254C1.52683 6.2035 1.4179 6.09584 1.2978 6.00154C1.57596 5.69423 1.73005 5.29455 1.73015 4.88007C1.73015 3.94512 0.9625 3.18647 0.0166193 3.18647C-0.929262 3.18647 -1.69691 3.9453 -1.69691 4.88007C-1.69691 5.31081 -1.53279 5.70328 -1.26456 6.00154C-1.38465 6.09584 -1.4936 6.2035 -1.58926 6.32254ZM5.94955 -1.12682C5.63605 -1.4028 5.23255 -1.55479 4.81485 -1.55424C3.86897 -1.55424 3.10133 -0.79541 3.10133 0.139354C3.10133 1.0743 3.86897 1.83135 4.81485 1.83135C5.25075 1.83135 5.64781 1.669 5.94955 1.40394C6.04488 1.52253 6.15428 1.6307 6.27428 1.72494C5.9961 2.03224 5.84199 2.43191 5.84189 2.84641C5.84189 3.78135 6.60955 4.54 7.55543 4.54C8.50134 4.54 9.26896 3.78118 9.26896 2.84641C9.26896 2.41564 9.10488 2.02318 8.83662 1.72494C8.95662 1.6307 9.06602 1.52253 9.16134 1.40394C9.47484 1.67992 9.87834 1.83191 10.296 1.83135C11.2419 1.83135 12.0096 1.07253 12.0096 0.137589C12.0096 -0.797176 11.2419 -1.556 10.296 -1.556C9.86015 -1.556 9.46309 -1.39365 9.16134 -1.12859C9.06563 -1.24759 8.95671 -1.35529 8.83662 -1.44959C9.1148 -1.75689 9.26886 -2.15656 9.26896 -2.57106C9.26896 -3.506 8.50134 -4.26465 7.55543 -4.26465C6.60955 -4.26465 5.84189 -3.50582 5.84189 -2.57106C5.84189 -2.14029 6.00602 -1.74782 6.27428 -1.44959C6.15428 -1.35535 6.04488 -1.24718 5.94955 -1.12859V-1.12682ZM13.4866 6.32254C13.1731 6.04654 12.7696 5.89455 12.3519 5.89513C11.406 5.89513 10.6384 6.65394 10.6384 7.58873C10.6384 8.52366 11.406 9.28228 12.3519 9.28228C12.7878 9.28228 13.1849 9.12013 13.4866 8.85507C13.5823 8.974 13.6912 9.08166 13.8113 9.17587C13.5331 9.48323 13.379 9.88295 13.379 10.2975C13.379 11.2323 14.1466 11.9911 15.0925 11.9911C16.0384 11.9911 16.806 11.2323 16.806 10.2975C16.806 9.8666 16.6419 9.47413 16.3737 9.17587C16.4938 9.08166 16.6027 8.974 16.6984 8.85507C17.0119 9.13097 17.4154 9.28291 17.8331 9.28228C18.779 9.28228 19.5466 8.52347 19.5466 7.58873C19.5466 6.65394 18.779 5.89513 17.8331 5.89513C17.3972 5.89513 17.0002 6.05747 16.6984 6.32254C16.6027 6.2035 16.4938 6.09584 16.3737 6.00154C16.6519 5.69423 16.8059 5.29455 16.806 4.88007C16.806 3.94512 16.0384 3.18647 15.0925 3.18647C14.1466 3.18647 13.379 3.9453 13.379 4.88007C13.379 5.31081 13.5431 5.70328 13.8113 6.00154C13.6912 6.09584 13.5823 6.2035 13.4866 6.32254ZM5.94955 13.7738C5.63601 13.4979 5.23251 13.346 4.81485 13.3466C3.86897 13.3466 3.10133 14.1054 3.10133 15.0402C3.10133 15.9749 3.86897 16.7337 4.81485 16.7337C5.25075 16.7337 5.64781 16.5714 5.94955 16.3063C6.04522 16.4254 6.15418 16.533 6.27428 16.6273C5.9961 16.9346 5.84199 17.3343 5.84189 17.7488C5.84189 18.6837 6.60955 19.4424 7.55543 19.4424C8.50134 19.4424 9.26896 18.6837 9.26896 17.7488C9.26896 17.3181 9.10488 16.9256 8.83662 16.6273C8.95671 16.533 9.06563 16.4254 9.16134 16.3063C9.47484 16.5823 9.87834 16.7343 10.296 16.7337C11.2419 16.7337 12.0096 15.9749 12.0096 15.0402C12.0096 14.1052 11.2419 13.3466 10.296 13.3466C9.86015 13.3466 9.46309 13.5087 9.16134 13.7738C9.06563 13.6549 8.95671 13.5473 8.83662 13.453C9.11484 13.1456 9.26891 12.7459 9.26896 12.3313C9.26896 11.3966 8.50134 10.6377 7.55543 10.6377C6.60955 10.6377 5.84189 11.3966 5.84189 12.3313C5.84189 12.7623 6.00602 13.1546 6.27428 13.453C6.15418 13.5473 6.04522 13.6549 5.94955 13.7738Z" fill="#1A3038"/>
</g>
</g>
</svg>
