<svg width="360" height="27" viewBox="0 0 360 27" fill="none" xmlns="http://www.w3.org/2000/svg">
<g clip-path="url(#clip0_2031_3549)">
<mask id="mask0_2031_3549" style="mask-type:luminance" maskUnits="userSpaceOnUse" x="0" y="0" width="26" height="27">
<path d="M0 0H25.7143V26.8192H0V0Z" fill="white"/>
</mask>
<g mask="url(#mask0_2031_3549)">
<path d="M-339.104 394.47L385.478 -361.246H371.545L-353.037 394.47H-339.104ZM-314.181 395.265L410.4 -360.45H396.467L-328.114 395.265H-314.181ZM-364.581 394.193L360 -361.523H346.067L-378.514 394.193H-364.581Z" fill="#F4ECDD"/>
</g>
</g>
<g clip-path="url(#clip1_2031_3549)">
<mask id="mask1_2031_3549" style="mask-type:luminance" maskUnits="userSpaceOnUse" x="154" y="0" width="26" height="27">
<path d="M154.286 0H180V26.8192H154.286V0Z" fill="white"/>
</mask>
<g mask="url(#mask1_2031_3549)">
<path d="M-184.818 394.47L539.763 -361.246H525.83L-198.751 394.47H-184.818ZM-159.896 395.265L564.686 -360.45H550.753L-173.829 395.265H-159.896ZM-210.296 394.193L514.286 -361.523H500.353L-224.229 394.193H-210.296Z" fill="#F4ECDD"/>
</g>
</g>
<g clip-path="url(#clip2_2031_3549)">
<mask id="mask2_2031_3549" style="mask-type:luminance" maskUnits="userSpaceOnUse" x="51" y="0" width="27" height="27">
<path d="M51.4287 0H77.143V26.8192H51.4287V0Z" fill="white"/>
</mask>
<g mask="url(#mask2_2031_3549)">
<path d="M-287.675 394.47L436.906 -361.246H422.973L-301.608 394.47H-287.675ZM-262.753 395.265L461.829 -360.45H447.896L-276.686 395.265H-262.753ZM-313.153 394.193L411.429 -361.523H397.496L-327.086 394.193H-313.153Z" fill="#F4ECDD"/>
</g>
</g>
<g clip-path="url(#clip3_2031_3549)">
<mask id="mask3_2031_3549" style="mask-type:luminance" maskUnits="userSpaceOnUse" x="205" y="0" width="27" height="27">
<path d="M205.714 0H231.429V26.8192H205.714V0Z" fill="white"/>
</mask>
<g mask="url(#mask3_2031_3549)">
<path d="M-133.389 394.47L591.192 -361.246H577.259L-147.322 394.47H-133.389ZM-108.467 395.265L616.114 -360.45H602.181L-122.4 395.265H-108.467ZM-158.867 394.193L565.714 -361.523H551.781L-172.8 394.193H-158.867Z" fill="#F4ECDD"/>
</g>
</g>
<g clip-path="url(#clip4_2031_3549)">
<mask id="mask4_2031_3549" style="mask-type:luminance" maskUnits="userSpaceOnUse" x="102" y="0" width="27" height="27">
<path d="M102.857 0H128.571V26.8192H102.857V0Z" fill="white"/>
</mask>
<g mask="url(#mask4_2031_3549)">
<path d="M-236.246 394.47L488.335 -361.246H474.402L-250.179 394.47H-236.246ZM-211.324 395.265L513.257 -360.45H499.324L-225.257 395.265H-211.324ZM-261.724 394.193L462.857 -361.523H448.924L-275.657 394.193H-261.724Z" fill="#F4ECDD"/>
</g>
</g>
<g clip-path="url(#clip5_2031_3549)">
<mask id="mask5_2031_3549" style="mask-type:luminance" maskUnits="userSpaceOnUse" x="257" y="0" width="26" height="27">
<path d="M257.143 0H282.857V26.8192H257.143V0Z" fill="white"/>
</mask>
<g mask="url(#mask5_2031_3549)">
<path d="M-81.9607 394.47L642.621 -361.246H628.688L-95.8938 394.47H-81.9607ZM-57.0384 395.265L667.543 -360.45H653.61L-70.9715 395.265H-57.0384ZM-107.438 394.193L617.143 -361.523H603.21L-121.371 394.193H-107.438Z" fill="#F4ECDD"/>
</g>
</g>
<g clip-path="url(#clip6_2031_3549)">
<mask id="mask6_2031_3549" style="mask-type:luminance" maskUnits="userSpaceOnUse" x="334" y="0" width="26" height="27">
<path d="M334.286 0H360V26.8192H334.286V0Z" fill="white"/>
</mask>
<g mask="url(#mask6_2031_3549)">
<path d="M-4.81788 394.47L719.763 -361.246H705.83L-18.7509 394.47H-4.81788ZM20.1044 395.265L744.686 -360.45H730.753L6.17137 395.265H20.1044ZM-30.2956 394.193L694.286 -361.523H680.353L-44.2286 394.193H-30.2956Z" fill="#F4ECDD"/>
</g>
</g>
<g clip-path="url(#clip7_2031_3549)">
<mask id="mask7_2031_3549" style="mask-type:luminance" maskUnits="userSpaceOnUse" x="25" y="0" width="27" height="27">
<path d="M25.7144 0H51.4286V26.8192H25.7144V0Z" fill="white"/>
</mask>
<g mask="url(#mask7_2031_3549)">
<path d="M-313.389 394.47L411.192 -361.246H397.259L-327.322 394.47H-313.389ZM-288.467 395.265L436.114 -360.45H422.181L-302.4 395.265H-288.467ZM-338.867 394.193L385.714 -361.523H371.781L-352.8 394.193H-338.867Z" fill="#F4ECDD"/>
</g>
</g>
<g clip-path="url(#clip8_2031_3549)">
<mask id="mask8_2031_3549" style="mask-type:luminance" maskUnits="userSpaceOnUse" x="180" y="0" width="26" height="27">
<path d="M180 0H205.714V26.8192H180V0Z" fill="white"/>
</mask>
<g mask="url(#mask8_2031_3549)">
<path d="M-159.104 394.47L565.478 -361.246H551.545L-173.037 394.47H-159.104ZM-134.181 395.265L590.4 -360.45H576.467L-148.114 395.265H-134.181ZM-184.581 394.193L540 -361.523H526.067L-198.514 394.193H-184.581Z" fill="#F4ECDD"/>
</g>
</g>
<g clip-path="url(#clip9_2031_3549)">
<mask id="mask9_2031_3549" style="mask-type:luminance" maskUnits="userSpaceOnUse" x="77" y="0" width="26" height="27">
<path d="M77.1428 0H102.857V26.8192H77.1428V0Z" fill="white"/>
</mask>
<g mask="url(#mask9_2031_3549)">
<path d="M-261.961 394.47L462.621 -361.246H448.688L-275.894 394.47H-261.961ZM-237.038 395.265L487.543 -360.45H473.61L-250.971 395.265H-237.038ZM-287.438 394.193L437.143 -361.523H423.21L-301.371 394.193H-287.438Z" fill="#F4ECDD"/>
</g>
</g>
<g clip-path="url(#clip10_2031_3549)">
<mask id="mask10_2031_3549" style="mask-type:luminance" maskUnits="userSpaceOnUse" x="231" y="0" width="27" height="27">
<path d="M231.429 0H257.143V26.8192H231.429V0Z" fill="white"/>
</mask>
<g mask="url(#mask10_2031_3549)">
<path d="M-107.675 394.47L616.906 -361.246H602.973L-121.608 394.47H-107.675ZM-82.7525 395.265L641.829 -360.45H627.896L-96.6856 395.265H-82.7525ZM-133.153 394.193L591.429 -361.523H577.496L-147.086 394.193H-133.153Z" fill="#F4ECDD"/>
</g>
</g>
<g clip-path="url(#clip11_2031_3549)">
<mask id="mask11_2031_3549" style="mask-type:luminance" maskUnits="userSpaceOnUse" x="308" y="0" width="27" height="27">
<path d="M308.571 0H334.286V26.8192H308.571V0Z" fill="white"/>
</mask>
<g mask="url(#mask11_2031_3549)">
<path d="M-30.5322 394.47L694.049 -361.246H680.116L-44.4653 394.47H-30.5322ZM-5.60997 395.265L718.971 -360.45H705.038L-19.543 395.265H-5.60997ZM-56.01 394.193L668.571 -361.523H654.638L-69.943 394.193H-56.01Z" fill="#F4ECDD"/>
</g>
</g>
<g clip-path="url(#clip12_2031_3549)">
<mask id="mask12_2031_3549" style="mask-type:luminance" maskUnits="userSpaceOnUse" x="128" y="0" width="27" height="27">
<path d="M128.571 0H154.286V26.8192H128.571V0Z" fill="white"/>
</mask>
<g mask="url(#mask12_2031_3549)">
<path d="M-210.532 394.47L514.049 -361.246H500.116L-224.465 394.47H-210.532ZM-185.61 395.265L538.971 -360.45H525.038L-199.543 395.265H-185.61ZM-236.01 394.193L488.571 -361.523H474.638L-249.943 394.193H-236.01Z" fill="#F4ECDD"/>
</g>
</g>
<g clip-path="url(#clip13_2031_3549)">
<mask id="mask13_2031_3549" style="mask-type:luminance" maskUnits="userSpaceOnUse" x="282" y="0" width="27" height="27">
<path d="M282.857 0H308.571V26.8192H282.857V0Z" fill="white"/>
</mask>
<g mask="url(#mask13_2031_3549)">
<path d="M-56.2463 394.47L668.335 -361.246H654.402L-70.1794 394.47H-56.2463ZM-31.3241 395.265L693.257 -360.45H679.324L-45.2571 395.265H-31.3241ZM-81.7241 394.193L642.857 -361.523H628.924L-95.6571 394.193H-81.7241Z" fill="#F4ECDD"/>
</g>
</g>
<defs>
<clipPath id="clip0_2031_3549">
<rect width="25.7143" height="26.8192" fill="white"/>
</clipPath>
<clipPath id="clip1_2031_3549">
<rect width="25.7143" height="26.8192" fill="white" transform="translate(154.286)"/>
</clipPath>
<clipPath id="clip2_2031_3549">
<rect width="25.7143" height="26.8192" fill="white" transform="translate(51.4287)"/>
</clipPath>
<clipPath id="clip3_2031_3549">
<rect width="25.7143" height="26.8192" fill="white" transform="translate(205.714)"/>
</clipPath>
<clipPath id="clip4_2031_3549">
<rect width="25.7143" height="26.8192" fill="white" transform="translate(102.857)"/>
</clipPath>
<clipPath id="clip5_2031_3549">
<rect width="25.7143" height="26.8192" fill="white" transform="translate(257.143)"/>
</clipPath>
<clipPath id="clip6_2031_3549">
<rect width="25.7143" height="26.8192" fill="white" transform="translate(334.286)"/>
</clipPath>
<clipPath id="clip7_2031_3549">
<rect width="25.7143" height="26.8192" fill="white" transform="translate(25.7144)"/>
</clipPath>
<clipPath id="clip8_2031_3549">
<rect width="25.7143" height="26.8192" fill="white" transform="translate(180)"/>
</clipPath>
<clipPath id="clip9_2031_3549">
<rect width="25.7143" height="26.8192" fill="white" transform="translate(77.1428)"/>
</clipPath>
<clipPath id="clip10_2031_3549">
<rect width="25.7143" height="26.8192" fill="white" transform="translate(231.429)"/>
</clipPath>
<clipPath id="clip11_2031_3549">
<rect width="25.7143" height="26.8192" fill="white" transform="translate(308.571)"/>
</clipPath>
<clipPath id="clip12_2031_3549">
<rect width="25.7143" height="26.8192" fill="white" transform="translate(128.571)"/>
</clipPath>
<clipPath id="clip13_2031_3549">
<rect width="25.7143" height="26.8192" fill="white" transform="translate(282.857)"/>
</clipPath>
</defs>
</svg>
