<svg width="358" height="27" viewBox="0 0 358 27" fill="none" xmlns="http://www.w3.org/2000/svg">
<path d="M7.36772 4.49964H8.10433V3.74981H7.36789V4.49964H7.36772ZM7.36772 7.50046H8.10433V6.7503H7.36789V7.50046H7.36772ZM9.57804 6.00081H10.3148V5.25081H9.57804V6.00081ZM11.7885 4.4993H12.5253V3.74981H11.7885V4.49947V4.4993ZM11.7885 19.5004H12.5253V18.7502H11.7885V19.5004ZM7.36772 16.5006H8.10433V15.7511H7.36789V16.5009V16.5006H7.36772ZM9.57787 18.0006H10.3146V17.2504H9.57804L9.57787 18.0006ZM7.36789 19.5006H8.1045V18.7504H7.36789V19.5006ZM20.6308 10.5003H21.3676V9.75011H20.6308V10.5003ZM18.4206 12.0001H19.1574V11.2499H18.4203L18.4206 12.0001ZM20.6308 13.4999H21.3676V12.7503H20.6308V13.4999ZM13.9998 6.00064H14.7366V5.25064H13.9997V6.00081L13.9998 6.00064ZM16.2102 4.4993H16.9469V3.74981H16.2102V4.49947V4.4993ZM11.7884 7.50063H12.5251V6.75046H11.7885L11.7884 7.50063ZM16.2102 7.50063H16.9469V6.75046H16.2102V7.50063ZM18.4205 6.00097H19.1572V5.25098H18.4203V6.00114L18.4205 6.00097ZM13.9998 9.00028H14.7366V8.25062H13.9997L13.9998 9.00028ZM18.4205 9.00028H19.1572V8.25062H18.4203L18.4205 9.00028ZM20.6306 7.50046H21.3674V6.7503H20.6306V7.50046ZM16.21 10.5008H16.9469V9.75061H16.2102L16.21 10.5008ZM12.5253 15.7506H11.7884V16.5007H12.5251L12.5253 15.7506ZM14.7364 17.2507H13.9997V18.0006H14.7366V17.2507H14.7364ZM16.2103 19.5004H16.9469V18.7506H16.2102L16.2103 19.5004ZM9.57771 15.0011H10.3145V14.2509H9.57804V15.0011H9.57771ZM18.4205 18.0006H19.1572V17.2504H18.4203L18.4205 18.0006ZM20.6306 16.5004H21.3674V15.7509H20.6306V16.5004ZM20.6306 19.5006H21.3674V18.7504H20.6306V19.5006ZM7.36772 10.5003H8.10433V9.75011H7.36789V10.5003H7.36772ZM9.57787 8.99994H10.3146V8.25062H9.57804V9.00028L9.57787 8.99994ZM20.6306 4.49947H21.3674V3.74981H20.6306V4.49947ZM9.57787 12.0001H10.3146V11.2503H9.57804L9.57787 12.0001ZM11.7885 10.5006H12.5253V9.75045H11.7885V10.5006ZM7.36789 13.5003H8.1045V12.7504H7.36789V13.5003ZM18.4206 15.0013H19.1574V14.2511H18.4203L18.4206 15.0013ZM16.2103 16.5007H16.9471V15.7513H16.2103V16.5007ZM15.4732 11.9999H14.7368V10.5001H13.2631V11.9999H12.5263V12.7499H11.0527V14.2497H12.5265V14.9997H13.2631V16.4996H14.7366V14.9999H15.4732V14.2497H16.9469V12.7499H15.4734V11.9999H15.4732ZM14.7369 14.2497H13.2632V12.7499H14.7368L14.7369 14.2497ZM22.8423 9.00062H23.5789V8.25079H22.8423V9.00062ZM22.8423 12.0003H23.5789V11.2503H22.8423V12.0003ZM22.8423 15.0013H23.5789V14.2511H22.8423V15.0013ZM22.8423 18.0009H23.5789V17.2507H22.8423V18.0009ZM23.5789 5.25098H22.8423V6.00114H23.5789V5.25098ZM26.5263 1.50016H25.7895V0.000337289H24.316V1.50016H23.579V2.25015H22.1055V3.75015H23.579V4.4998H24.316V5.99996H25.7895V4.49964H26.5263V3.74998H27.9998V2.24999H26.5263V1.50016ZM25.7895 3.74981H24.316V2.24982H25.7895V3.74981ZM5.15724 6.00047H5.89401V5.25081H5.15741V6.00097V6.00047H5.15724ZM3.6837 6.75046H2.94609V7.50063H3.6837V6.75046ZM5.15757 9.00028H5.89401V8.25062H5.15741L5.15757 9.00028ZM2.94593 10.5004H3.68353V9.75028H2.94593V10.5004ZM2.94593 13.5001H3.68353V12.7503H2.94593V13.5001ZM5.15724 12.0001H5.89385V11.2503H5.15724V12.0001ZM2.94626 19.5009H3.68386V18.7507H2.94626V19.5009ZM5.15741 15.0014H5.89385V14.2513H5.15707L5.15741 15.0014ZM2.94626 16.5007H3.68386V15.7513H2.94626V16.5007ZM5.15741 18.0011H5.89368V17.2509H5.15707L5.15741 18.0011ZM4.42014 1.49965H3.68386V0H2.21015V1.49982H1.47354V2.24982H0V3.74981H1.47371V4.4993H2.21048V5.99946H3.68403V4.49913H4.42097V3.74998H5.89468V2.24999H4.42113V1.49999H4.42014V1.49965ZM3.68386 3.74981H2.21015V2.24982H3.6837V3.74981H3.68386ZM9.57804 21.0005H10.3148V20.2504H9.57804V21.0005ZM11.7885 22.5002H12.5253V21.7502H11.7885V22.5002ZM13.9998 21.0005H14.7368V20.2504H13.9997L13.9998 21.0005ZM13.9998 24.0012H14.7368V23.2515H13.9997L13.9998 24.0012ZM9.57804 24.0012H10.3148V23.2515H9.57804V24.0012ZM7.36789 22.5002H8.1045V21.7502H7.36789V22.5002ZM18.4206 21.0005H19.1574V20.2504H18.4203L18.4206 21.0005ZM16.2103 22.5002H16.9471V21.7502H16.2103V22.5002ZM20.6308 22.5002H21.3676V21.7502H20.6308V22.5002ZM18.4206 24.0012H19.1574V23.2515H18.4203L18.4206 24.0012ZM22.8424 21.0005H23.579V20.2504H22.8424V21.0005ZM26.5265 22.5004H25.7897V21.0007H24.3161V22.5004H23.5792V23.2504H22.1057V24.75H23.5792V25.5002H24.3161V27H25.7897V25.5002H26.5265V24.75H28V23.2504H26.5265V22.5004ZM25.7897 24.75H24.3161V23.2504H25.7897V24.75ZM5.15724 21.0005H5.89401V20.2504H5.15741V21.0005H5.15724ZM4.42063 22.5004H3.68386V21.0007H2.21015V22.5004H1.47354V23.2504H0V24.75H1.47371V25.5002H2.21048V27H3.68403V25.5002H4.42097V24.75H5.89468V23.2504H4.42113V22.5004H4.42063ZM3.68386 24.75H2.21015V23.2504H3.6837V24.75H3.68386Z" fill="#F7ECDC"/>
<path d="M183.368 4.49964H184.104V3.74981H183.368V4.49964H183.368ZM183.368 7.50046H184.104V6.7503H183.368V7.50046H183.368ZM185.578 6.00081H186.315V5.25081H185.578V6.00081ZM187.789 4.4993H188.525V3.74981H187.789V4.49947V4.4993ZM187.789 19.5004H188.525V18.7502H187.789V19.5004ZM183.368 16.5006H184.104V15.7511H183.368V16.5009V16.5006H183.368ZM185.578 18.0006H186.315V17.2504H185.578L185.578 18.0006ZM183.368 19.5006H184.104V18.7504H183.368V19.5006ZM196.631 10.5003H197.368V9.75011H196.631V10.5003ZM194.421 12.0001H195.157V11.2499H194.42L194.421 12.0001ZM196.631 13.4999H197.368V12.7503H196.631V13.4999ZM190 6.00064H190.737V5.25064H190V6.00081L190 6.00064ZM192.21 4.4993H192.947V3.74981H192.21V4.49947V4.4993ZM187.788 7.50063H188.525V6.75046H187.789L187.788 7.50063ZM192.21 7.50063H192.947V6.75046H192.21V7.50063ZM194.42 6.00097H195.157V5.25098H194.42V6.00114L194.42 6.00097ZM190 9.00028H190.737V8.25062H190L190 9.00028ZM194.42 9.00028H195.157V8.25062H194.42L194.42 9.00028ZM196.631 7.50046H197.367V6.7503H196.631V7.50046ZM192.21 10.5008H192.947V9.75061H192.21L192.21 10.5008ZM188.525 15.7506H187.788V16.5007H188.525L188.525 15.7506ZM190.736 17.2507H190V18.0006H190.737V17.2507H190.736ZM192.21 19.5004H192.947V18.7506H192.21L192.21 19.5004ZM185.578 15.0011H186.314V14.2509H185.578V15.0011H185.578ZM194.42 18.0006H195.157V17.2504H194.42L194.42 18.0006ZM196.631 16.5004H197.367V15.7509H196.631V16.5004ZM196.631 19.5006H197.367V18.7504H196.631V19.5006ZM183.368 10.5003H184.104V9.75011H183.368V10.5003H183.368ZM185.578 8.99994H186.315V8.25062H185.578V9.00028L185.578 8.99994ZM196.631 4.49947H197.367V3.74981H196.631V4.49947ZM185.578 12.0001H186.315V11.2503H185.578L185.578 12.0001ZM187.789 10.5006H188.525V9.75045H187.789V10.5006ZM183.368 13.5003H184.104V12.7504H183.368V13.5003ZM194.421 15.0013H195.157V14.2511H194.42L194.421 15.0013ZM192.21 16.5007H192.947V15.7513H192.21V16.5007ZM191.473 11.9999H190.737V10.5001H189.263V11.9999H188.526V12.7499H187.053V14.2497H188.526V14.9997H189.263V16.4996H190.737V14.9999H191.473V14.2497H192.947V12.7499H191.473V11.9999H191.473ZM190.737 14.2497H189.263V12.7499H190.737L190.737 14.2497ZM198.842 9.00062H199.579V8.25079H198.842V9.00062ZM198.842 12.0003H199.579V11.2503H198.842V12.0003ZM198.842 15.0013H199.579V14.2511H198.842V15.0013ZM198.842 18.0009H199.579V17.2507H198.842V18.0009ZM199.579 5.25098H198.842V6.00114H199.579V5.25098ZM202.526 1.50016H201.79V0.000337289H200.316V1.50016H199.579V2.25015H198.105V3.75015H199.579V4.4998H200.316V5.99996H201.79V4.49964H202.526V3.74998H204V2.24999H202.526V1.50016ZM201.79 3.74981H200.316V2.24982H201.79V3.74981ZM181.157 6.00047H181.894V5.25081H181.157V6.00097V6.00047H181.157ZM179.684 6.75046H178.946V7.50063H179.684V6.75046ZM181.158 9.00028H181.894V8.25062H181.157L181.158 9.00028ZM178.946 10.5004H179.684V9.75028H178.946V10.5004ZM178.946 13.5001H179.684V12.7503H178.946V13.5001ZM181.157 12.0001H181.894V11.2503H181.157V12.0001ZM178.946 19.5009H179.684V18.7507H178.946V19.5009ZM181.157 15.0014H181.894V14.2513H181.157L181.157 15.0014ZM178.946 16.5007H179.684V15.7513H178.946V16.5007ZM181.157 18.0011H181.894V17.2509H181.157L181.157 18.0011ZM180.42 1.49965H179.684V0H178.21V1.49982H177.474V2.24982H176V3.74981H177.474V4.4993H178.21V5.99946H179.684V4.49913H180.421V3.74998H181.895V2.24999H180.421V1.49999H180.42V1.49965ZM179.684 3.74981H178.21V2.24982H179.684V3.74981H179.684ZM185.578 21.0005H186.315V20.2504H185.578V21.0005ZM187.789 22.5002H188.525V21.7502H187.789V22.5002ZM190 21.0005H190.737V20.2504H190L190 21.0005ZM190 24.0012H190.737V23.2515H190L190 24.0012ZM185.578 24.0012H186.315V23.2515H185.578V24.0012ZM183.368 22.5002H184.104V21.7502H183.368V22.5002ZM194.421 21.0005H195.157V20.2504H194.42L194.421 21.0005ZM192.21 22.5002H192.947V21.7502H192.21V22.5002ZM196.631 22.5002H197.368V21.7502H196.631V22.5002ZM194.421 24.0012H195.157V23.2515H194.42L194.421 24.0012ZM198.842 21.0005H199.579V20.2504H198.842V21.0005ZM202.526 22.5004H201.79V21.0007H200.316V22.5004H199.579V23.2504H198.106V24.75H199.579V25.5002H200.316V27H201.79V25.5002H202.526V24.75H204V23.2504H202.526V22.5004ZM201.79 24.75H200.316V23.2504H201.79V24.75ZM181.157 21.0005H181.894V20.2504H181.157V21.0005H181.157ZM180.421 22.5004H179.684V21.0007H178.21V22.5004H177.474V23.2504H176V24.75H177.474V25.5002H178.21V27H179.684V25.5002H180.421V24.75H181.895V23.2504H180.421V22.5004H180.421ZM179.684 24.75H178.21V23.2504H179.684V24.75H179.684Z" fill="#F7ECDC"/>
<path d="M95.3677 4.49964H96.1043V3.74981H95.3679V4.49964H95.3677ZM95.3677 7.50046H96.1043V6.7503H95.3679V7.50046H95.3677ZM97.578 6.00081H98.3148V5.25081H97.578V6.00081ZM99.7885 4.4993H100.525V3.74981H99.7885V4.49947V4.4993ZM99.7885 19.5004H100.525V18.7502H99.7885V19.5004ZM95.3677 16.5006H96.1043V15.7511H95.3679V16.5009V16.5006H95.3677ZM97.5779 18.0006H98.3146V17.2504H97.578L97.5779 18.0006ZM95.3679 19.5006H96.1045V18.7504H95.3679V19.5006ZM108.631 10.5003H109.368V9.75011H108.631V10.5003ZM106.421 12.0001H107.157V11.2499H106.42L106.421 12.0001ZM108.631 13.4999H109.368V12.7503H108.631V13.4999ZM102 6.00064H102.737V5.25064H102V6.00081L102 6.00064ZM104.21 4.4993H104.947V3.74981H104.21V4.49947V4.4993ZM99.7884 7.50063H100.525V6.75046H99.7885L99.7884 7.50063ZM104.21 7.50063H104.947V6.75046H104.21V7.50063ZM106.42 6.00097H107.157V5.25098H106.42V6.00114L106.42 6.00097ZM102 9.00028H102.737V8.25062H102L102 9.00028ZM106.42 9.00028H107.157V8.25062H106.42L106.42 9.00028ZM108.631 7.50046H109.367V6.7503H108.631V7.50046ZM104.21 10.5008H104.947V9.75061H104.21L104.21 10.5008ZM100.525 15.7506H99.7884V16.5007H100.525L100.525 15.7506ZM102.736 17.2507H102V18.0006H102.737V17.2507H102.736ZM104.21 19.5004H104.947V18.7506H104.21L104.21 19.5004ZM97.5777 15.0011H98.3145V14.2509H97.578V15.0011H97.5777ZM106.42 18.0006H107.157V17.2504H106.42L106.42 18.0006ZM108.631 16.5004H109.367V15.7509H108.631V16.5004ZM108.631 19.5006H109.367V18.7504H108.631V19.5006ZM95.3677 10.5003H96.1043V9.75011H95.3679V10.5003H95.3677ZM97.5779 8.99994H98.3146V8.25062H97.578V9.00028L97.5779 8.99994ZM108.631 4.49947H109.367V3.74981H108.631V4.49947ZM97.5779 12.0001H98.3146V11.2503H97.578L97.5779 12.0001ZM99.7885 10.5006H100.525V9.75045H99.7885V10.5006ZM95.3679 13.5003H96.1045V12.7504H95.3679V13.5003ZM106.421 15.0013H107.157V14.2511H106.42L106.421 15.0013ZM104.21 16.5007H104.947V15.7513H104.21V16.5007ZM103.473 11.9999H102.737V10.5001H101.263V11.9999H100.526V12.7499H99.0527V14.2497H100.526V14.9997H101.263V16.4996H102.737V14.9999H103.473V14.2497H104.947V12.7499H103.473V11.9999H103.473ZM102.737 14.2497H101.263V12.7499H102.737L102.737 14.2497ZM110.842 9.00062H111.579V8.25079H110.842V9.00062ZM110.842 12.0003H111.579V11.2503H110.842V12.0003ZM110.842 15.0013H111.579V14.2511H110.842V15.0013ZM110.842 18.0009H111.579V17.2507H110.842V18.0009ZM111.579 5.25098H110.842V6.00114H111.579V5.25098ZM114.526 1.50016H113.79V0.000337289H112.316V1.50016H111.579V2.25015H110.105V3.75015H111.579V4.4998H112.316V5.99996H113.79V4.49964H114.526V3.74998H116V2.24999H114.526V1.50016ZM113.79 3.74981H112.316V2.24982H113.79V3.74981ZM93.1572 6.00047H93.894V5.25081H93.1574V6.00097V6.00047H93.1572ZM91.6837 6.75046H90.9461V7.50063H91.6837V6.75046ZM93.1576 9.00028H93.894V8.25062H93.1574L93.1576 9.00028ZM90.9459 10.5004H91.6835V9.75028H90.9459V10.5004ZM90.9459 13.5001H91.6835V12.7503H90.9459V13.5001ZM93.1572 12.0001H93.8938V11.2503H93.1572V12.0001ZM90.9463 19.5009H91.6839V18.7507H90.9463V19.5009ZM93.1574 15.0014H93.8938V14.2513H93.1571L93.1574 15.0014ZM90.9463 16.5007H91.6839V15.7513H90.9463V16.5007ZM93.1574 18.0011H93.8937V17.2509H93.1571L93.1574 18.0011ZM92.4201 1.49965H91.6839V0H90.2102V1.49982H89.4735V2.24982H88V3.74981H89.4737V4.4993H90.2105V5.99946H91.684V4.49913H92.421V3.74998H93.8947V2.24999H92.4211V1.49999H92.4201V1.49965ZM91.6839 3.74981H90.2102V2.24982H91.6837V3.74981H91.6839ZM97.578 21.0005H98.3148V20.2504H97.578V21.0005ZM99.7885 22.5002H100.525V21.7502H99.7885V22.5002ZM102 21.0005H102.737V20.2504H102L102 21.0005ZM102 24.0012H102.737V23.2515H102L102 24.0012ZM97.578 24.0012H98.3148V23.2515H97.578V24.0012ZM95.3679 22.5002H96.1045V21.7502H95.3679V22.5002ZM106.421 21.0005H107.157V20.2504H106.42L106.421 21.0005ZM104.21 22.5002H104.947V21.7502H104.21V22.5002ZM108.631 22.5002H109.368V21.7502H108.631V22.5002ZM106.421 24.0012H107.157V23.2515H106.42L106.421 24.0012ZM110.842 21.0005H111.579V20.2504H110.842V21.0005ZM114.526 22.5004H113.79V21.0007H112.316V22.5004H111.579V23.2504H110.106V24.75H111.579V25.5002H112.316V27H113.79V25.5002H114.526V24.75H116V23.2504H114.526V22.5004ZM113.79 24.75H112.316V23.2504H113.79V24.75ZM93.1572 21.0005H93.894V20.2504H93.1574V21.0005H93.1572ZM92.4206 22.5004H91.6839V21.0007H90.2102V22.5004H89.4735V23.2504H88V24.75H89.4737V25.5002H90.2105V27H91.684V25.5002H92.421V24.75H93.8947V23.2504H92.4211V22.5004H92.4206ZM91.6839 24.75H90.2102V23.2504H91.6837V24.75H91.6839Z" fill="#F7ECDC"/>
<path d="M271.368 4.49964H272.104V3.74981H271.368V4.49964H271.368ZM271.368 7.50046H272.104V6.7503H271.368V7.50046H271.368ZM273.578 6.00081H274.315V5.25081H273.578V6.00081ZM275.789 4.4993H276.525V3.74981H275.789V4.49947V4.4993ZM275.789 19.5004H276.525V18.7502H275.789V19.5004ZM271.368 16.5006H272.104V15.7511H271.368V16.5009V16.5006H271.368ZM273.578 18.0006H274.315V17.2504H273.578L273.578 18.0006ZM271.368 19.5006H272.104V18.7504H271.368V19.5006ZM284.631 10.5003H285.368V9.75011H284.631V10.5003ZM282.421 12.0001H283.157V11.2499H282.42L282.421 12.0001ZM284.631 13.4999H285.368V12.7503H284.631V13.4999ZM278 6.00064H278.737V5.25064H278V6.00081L278 6.00064ZM280.21 4.4993H280.947V3.74981H280.21V4.49947V4.4993ZM275.788 7.50063H276.525V6.75046H275.789L275.788 7.50063ZM280.21 7.50063H280.947V6.75046H280.21V7.50063ZM282.42 6.00097H283.157V5.25098H282.42V6.00114L282.42 6.00097ZM278 9.00028H278.737V8.25062H278L278 9.00028ZM282.42 9.00028H283.157V8.25062H282.42L282.42 9.00028ZM284.631 7.50046H285.367V6.7503H284.631V7.50046ZM280.21 10.5008H280.947V9.75061H280.21L280.21 10.5008ZM276.525 15.7506H275.788V16.5007H276.525L276.525 15.7506ZM278.736 17.2507H278V18.0006H278.737V17.2507H278.736ZM280.21 19.5004H280.947V18.7506H280.21L280.21 19.5004ZM273.578 15.0011H274.314V14.2509H273.578V15.0011H273.578ZM282.42 18.0006H283.157V17.2504H282.42L282.42 18.0006ZM284.631 16.5004H285.367V15.7509H284.631V16.5004ZM284.631 19.5006H285.367V18.7504H284.631V19.5006ZM271.368 10.5003H272.104V9.75011H271.368V10.5003H271.368ZM273.578 8.99994H274.315V8.25062H273.578V9.00028L273.578 8.99994ZM284.631 4.49947H285.367V3.74981H284.631V4.49947ZM273.578 12.0001H274.315V11.2503H273.578L273.578 12.0001ZM275.789 10.5006H276.525V9.75045H275.789V10.5006ZM271.368 13.5003H272.104V12.7504H271.368V13.5003ZM282.421 15.0013H283.157V14.2511H282.42L282.421 15.0013ZM280.21 16.5007H280.947V15.7513H280.21V16.5007ZM279.473 11.9999H278.737V10.5001H277.263V11.9999H276.526V12.7499H275.053V14.2497H276.526V14.9997H277.263V16.4996H278.737V14.9999H279.473V14.2497H280.947V12.7499H279.473V11.9999H279.473ZM278.737 14.2497H277.263V12.7499H278.737L278.737 14.2497ZM286.842 9.00062H287.579V8.25079H286.842V9.00062ZM286.842 12.0003H287.579V11.2503H286.842V12.0003ZM286.842 15.0013H287.579V14.2511H286.842V15.0013ZM286.842 18.0009H287.579V17.2507H286.842V18.0009ZM287.579 5.25098H286.842V6.00114H287.579V5.25098ZM290.526 1.50016H289.79V0.000337289H288.316V1.50016H287.579V2.25015H286.105V3.75015H287.579V4.4998H288.316V5.99996H289.79V4.49964H290.526V3.74998H292V2.24999H290.526V1.50016ZM289.79 3.74981H288.316V2.24982H289.79V3.74981ZM269.157 6.00047H269.894V5.25081H269.157V6.00097V6.00047H269.157ZM267.684 6.75046H266.946V7.50063H267.684V6.75046ZM269.158 9.00028H269.894V8.25062H269.157L269.158 9.00028ZM266.946 10.5004H267.684V9.75028H266.946V10.5004ZM266.946 13.5001H267.684V12.7503H266.946V13.5001ZM269.157 12.0001H269.894V11.2503H269.157V12.0001ZM266.946 19.5009H267.684V18.7507H266.946V19.5009ZM269.157 15.0014H269.894V14.2513H269.157L269.157 15.0014ZM266.946 16.5007H267.684V15.7513H266.946V16.5007ZM269.157 18.0011H269.894V17.2509H269.157L269.157 18.0011ZM268.42 1.49965H267.684V0H266.21V1.49982H265.474V2.24982H264V3.74981H265.474V4.4993H266.21V5.99946H267.684V4.49913H268.421V3.74998H269.895V2.24999H268.421V1.49999H268.42V1.49965ZM267.684 3.74981H266.21V2.24982H267.684V3.74981H267.684ZM273.578 21.0005H274.315V20.2504H273.578V21.0005ZM275.789 22.5002H276.525V21.7502H275.789V22.5002ZM278 21.0005H278.737V20.2504H278L278 21.0005ZM278 24.0012H278.737V23.2515H278L278 24.0012ZM273.578 24.0012H274.315V23.2515H273.578V24.0012ZM271.368 22.5002H272.104V21.7502H271.368V22.5002ZM282.421 21.0005H283.157V20.2504H282.42L282.421 21.0005ZM280.21 22.5002H280.947V21.7502H280.21V22.5002ZM284.631 22.5002H285.368V21.7502H284.631V22.5002ZM282.421 24.0012H283.157V23.2515H282.42L282.421 24.0012ZM286.842 21.0005H287.579V20.2504H286.842V21.0005ZM290.526 22.5004H289.79V21.0007H288.316V22.5004H287.579V23.2504H286.106V24.75H287.579V25.5002H288.316V27H289.79V25.5002H290.526V24.75H292V23.2504H290.526V22.5004ZM289.79 24.75H288.316V23.2504H289.79V24.75ZM269.157 21.0005H269.894V20.2504H269.157V21.0005H269.157ZM268.421 22.5004H267.684V21.0007H266.21V22.5004H265.474V23.2504H264V24.75H265.474V25.5002H266.21V27H267.684V25.5002H268.421V24.75H269.895V23.2504H268.421V22.5004H268.421ZM267.684 24.75H266.21V23.2504H267.684V24.75H267.684Z" fill="#F7ECDC"/>
<path d="M51.3677 4.49964H52.1043V3.74981H51.3679V4.49964H51.3677ZM51.3677 7.50046H52.1043V6.7503H51.3679V7.50046H51.3677ZM53.578 6.00081H54.3148V5.25081H53.578V6.00081ZM55.7885 4.4993H56.5253V3.74981H55.7885V4.49947V4.4993ZM55.7885 19.5004H56.5253V18.7502H55.7885V19.5004ZM51.3677 16.5006H52.1043V15.7511H51.3679V16.5009V16.5006H51.3677ZM53.5779 18.0006H54.3146V17.2504H53.578L53.5779 18.0006ZM51.3679 19.5006H52.1045V18.7504H51.3679V19.5006ZM64.6308 10.5003H65.3676V9.75011H64.6308V10.5003ZM62.4206 12.0001H63.1574V11.2499H62.4203L62.4206 12.0001ZM64.6308 13.4999H65.3676V12.7503H64.6308V13.4999ZM57.9998 6.00064H58.7366V5.25064H57.9997V6.00081L57.9998 6.00064ZM60.2102 4.4993H60.9469V3.74981H60.2102V4.49947V4.4993ZM55.7884 7.50063H56.5251V6.75046H55.7885L55.7884 7.50063ZM60.2102 7.50063H60.9469V6.75046H60.2102V7.50063ZM62.4205 6.00097H63.1572V5.25098H62.4203V6.00114L62.4205 6.00097ZM57.9998 9.00028H58.7366V8.25062H57.9997L57.9998 9.00028ZM62.4205 9.00028H63.1572V8.25062H62.4203L62.4205 9.00028ZM64.6306 7.50046H65.3674V6.7503H64.6306V7.50046ZM60.21 10.5008H60.9469V9.75061H60.2102L60.21 10.5008ZM56.5253 15.7506H55.7884V16.5007H56.5251L56.5253 15.7506ZM58.7364 17.2507H57.9997V18.0006H58.7366V17.2507H58.7364ZM60.2103 19.5004H60.9469V18.7506H60.2102L60.2103 19.5004ZM53.5777 15.0011H54.3145V14.2509H53.578V15.0011H53.5777ZM62.4205 18.0006H63.1572V17.2504H62.4203L62.4205 18.0006ZM64.6306 16.5004H65.3674V15.7509H64.6306V16.5004ZM64.6306 19.5006H65.3674V18.7504H64.6306V19.5006ZM51.3677 10.5003H52.1043V9.75011H51.3679V10.5003H51.3677ZM53.5779 8.99994H54.3146V8.25062H53.578V9.00028L53.5779 8.99994ZM64.6306 4.49947H65.3674V3.74981H64.6306V4.49947ZM53.5779 12.0001H54.3146V11.2503H53.578L53.5779 12.0001ZM55.7885 10.5006H56.5253V9.75045H55.7885V10.5006ZM51.3679 13.5003H52.1045V12.7504H51.3679V13.5003ZM62.4206 15.0013H63.1574V14.2511H62.4203L62.4206 15.0013ZM60.2103 16.5007H60.9471V15.7513H60.2103V16.5007ZM59.4732 11.9999H58.7368V10.5001H57.2631V11.9999H56.5263V12.7499H55.0527V14.2497H56.5265V14.9997H57.2631V16.4996H58.7366V14.9999H59.4732V14.2497H60.9469V12.7499H59.4734V11.9999H59.4732ZM58.7369 14.2497H57.2632V12.7499H58.7368L58.7369 14.2497ZM66.8423 9.00062H67.5789V8.25079H66.8423V9.00062ZM66.8423 12.0003H67.5789V11.2503H66.8423V12.0003ZM66.8423 15.0013H67.5789V14.2511H66.8423V15.0013ZM66.8423 18.0009H67.5789V17.2507H66.8423V18.0009ZM67.5789 5.25098H66.8423V6.00114H67.5789V5.25098ZM70.5263 1.50016H69.7895V0.000337289H68.316V1.50016H67.579V2.25015H66.1055V3.75015H67.579V4.4998H68.316V5.99996H69.7895V4.49964H70.5263V3.74998H71.9998V2.24999H70.5263V1.50016ZM69.7895 3.74981H68.316V2.24982H69.7895V3.74981ZM49.1572 6.00047H49.894V5.25081H49.1574V6.00097V6.00047H49.1572ZM47.6837 6.75046H46.9461V7.50063H47.6837V6.75046ZM49.1576 9.00028H49.894V8.25062H49.1574L49.1576 9.00028ZM46.9459 10.5004H47.6835V9.75028H46.9459V10.5004ZM46.9459 13.5001H47.6835V12.7503H46.9459V13.5001ZM49.1572 12.0001H49.8938V11.2503H49.1572V12.0001ZM46.9463 19.5009H47.6839V18.7507H46.9463V19.5009ZM49.1574 15.0014H49.8938V14.2513H49.1571L49.1574 15.0014ZM46.9463 16.5007H47.6839V15.7513H46.9463V16.5007ZM49.1574 18.0011H49.8937V17.2509H49.1571L49.1574 18.0011ZM48.4201 1.49965H47.6839V0H46.2102V1.49982H45.4735V2.24982H44V3.74981H45.4737V4.4993H46.2105V5.99946H47.684V4.49913H48.421V3.74998H49.8947V2.24999H48.4211V1.49999H48.4201V1.49965ZM47.6839 3.74981H46.2102V2.24982H47.6837V3.74981H47.6839ZM53.578 21.0005H54.3148V20.2504H53.578V21.0005ZM55.7885 22.5002H56.5253V21.7502H55.7885V22.5002ZM57.9998 21.0005H58.7368V20.2504H57.9997L57.9998 21.0005ZM57.9998 24.0012H58.7368V23.2515H57.9997L57.9998 24.0012ZM53.578 24.0012H54.3148V23.2515H53.578V24.0012ZM51.3679 22.5002H52.1045V21.7502H51.3679V22.5002ZM62.4206 21.0005H63.1574V20.2504H62.4203L62.4206 21.0005ZM60.2103 22.5002H60.9471V21.7502H60.2103V22.5002ZM64.6308 22.5002H65.3676V21.7502H64.6308V22.5002ZM62.4206 24.0012H63.1574V23.2515H62.4203L62.4206 24.0012ZM66.8424 21.0005H67.579V20.2504H66.8424V21.0005ZM70.5265 22.5004H69.7897V21.0007H68.3161V22.5004H67.5792V23.2504H66.1057V24.75H67.5792V25.5002H68.3161V27H69.7897V25.5002H70.5265V24.75H72V23.2504H70.5265V22.5004ZM69.7897 24.75H68.3161V23.2504H69.7897V24.75ZM49.1572 21.0005H49.894V20.2504H49.1574V21.0005H49.1572ZM48.4206 22.5004H47.6839V21.0007H46.2102V22.5004H45.4735V23.2504H44V24.75H45.4737V25.5002H46.2105V27H47.684V25.5002H48.421V24.75H49.8947V23.2504H48.4211V22.5004H48.4206ZM47.6839 24.75H46.2102V23.2504H47.6837V24.75H47.6839Z" fill="#F7ECDC"/>
<path d="M227.368 4.49964H228.104V3.74981H227.368V4.49964H227.368ZM227.368 7.50046H228.104V6.7503H227.368V7.50046H227.368ZM229.578 6.00081H230.315V5.25081H229.578V6.00081ZM231.789 4.4993H232.525V3.74981H231.789V4.49947V4.4993ZM231.789 19.5004H232.525V18.7502H231.789V19.5004ZM227.368 16.5006H228.104V15.7511H227.368V16.5009V16.5006H227.368ZM229.578 18.0006H230.315V17.2504H229.578L229.578 18.0006ZM227.368 19.5006H228.104V18.7504H227.368V19.5006ZM240.631 10.5003H241.368V9.75011H240.631V10.5003ZM238.421 12.0001H239.157V11.2499H238.42L238.421 12.0001ZM240.631 13.4999H241.368V12.7503H240.631V13.4999ZM234 6.00064H234.737V5.25064H234V6.00081L234 6.00064ZM236.21 4.4993H236.947V3.74981H236.21V4.49947V4.4993ZM231.788 7.50063H232.525V6.75046H231.789L231.788 7.50063ZM236.21 7.50063H236.947V6.75046H236.21V7.50063ZM238.42 6.00097H239.157V5.25098H238.42V6.00114L238.42 6.00097ZM234 9.00028H234.737V8.25062H234L234 9.00028ZM238.42 9.00028H239.157V8.25062H238.42L238.42 9.00028ZM240.631 7.50046H241.367V6.7503H240.631V7.50046ZM236.21 10.5008H236.947V9.75061H236.21L236.21 10.5008ZM232.525 15.7506H231.788V16.5007H232.525L232.525 15.7506ZM234.736 17.2507H234V18.0006H234.737V17.2507H234.736ZM236.21 19.5004H236.947V18.7506H236.21L236.21 19.5004ZM229.578 15.0011H230.314V14.2509H229.578V15.0011H229.578ZM238.42 18.0006H239.157V17.2504H238.42L238.42 18.0006ZM240.631 16.5004H241.367V15.7509H240.631V16.5004ZM240.631 19.5006H241.367V18.7504H240.631V19.5006ZM227.368 10.5003H228.104V9.75011H227.368V10.5003H227.368ZM229.578 8.99994H230.315V8.25062H229.578V9.00028L229.578 8.99994ZM240.631 4.49947H241.367V3.74981H240.631V4.49947ZM229.578 12.0001H230.315V11.2503H229.578L229.578 12.0001ZM231.789 10.5006H232.525V9.75045H231.789V10.5006ZM227.368 13.5003H228.104V12.7504H227.368V13.5003ZM238.421 15.0013H239.157V14.2511H238.42L238.421 15.0013ZM236.21 16.5007H236.947V15.7513H236.21V16.5007ZM235.473 11.9999H234.737V10.5001H233.263V11.9999H232.526V12.7499H231.053V14.2497H232.526V14.9997H233.263V16.4996H234.737V14.9999H235.473V14.2497H236.947V12.7499H235.473V11.9999H235.473ZM234.737 14.2497H233.263V12.7499H234.737L234.737 14.2497ZM242.842 9.00062H243.579V8.25079H242.842V9.00062ZM242.842 12.0003H243.579V11.2503H242.842V12.0003ZM242.842 15.0013H243.579V14.2511H242.842V15.0013ZM242.842 18.0009H243.579V17.2507H242.842V18.0009ZM243.579 5.25098H242.842V6.00114H243.579V5.25098ZM246.526 1.50016H245.79V0.000337289H244.316V1.50016H243.579V2.25015H242.105V3.75015H243.579V4.4998H244.316V5.99996H245.79V4.49964H246.526V3.74998H248V2.24999H246.526V1.50016ZM245.79 3.74981H244.316V2.24982H245.79V3.74981ZM225.157 6.00047H225.894V5.25081H225.157V6.00097V6.00047H225.157ZM223.684 6.75046H222.946V7.50063H223.684V6.75046ZM225.158 9.00028H225.894V8.25062H225.157L225.158 9.00028ZM222.946 10.5004H223.684V9.75028H222.946V10.5004ZM222.946 13.5001H223.684V12.7503H222.946V13.5001ZM225.157 12.0001H225.894V11.2503H225.157V12.0001ZM222.946 19.5009H223.684V18.7507H222.946V19.5009ZM225.157 15.0014H225.894V14.2513H225.157L225.157 15.0014ZM222.946 16.5007H223.684V15.7513H222.946V16.5007ZM225.157 18.0011H225.894V17.2509H225.157L225.157 18.0011ZM224.42 1.49965H223.684V0H222.21V1.49982H221.474V2.24982H220V3.74981H221.474V4.4993H222.21V5.99946H223.684V4.49913H224.421V3.74998H225.895V2.24999H224.421V1.49999H224.42V1.49965ZM223.684 3.74981H222.21V2.24982H223.684V3.74981H223.684ZM229.578 21.0005H230.315V20.2504H229.578V21.0005ZM231.789 22.5002H232.525V21.7502H231.789V22.5002ZM234 21.0005H234.737V20.2504H234L234 21.0005ZM234 24.0012H234.737V23.2515H234L234 24.0012ZM229.578 24.0012H230.315V23.2515H229.578V24.0012ZM227.368 22.5002H228.104V21.7502H227.368V22.5002ZM238.421 21.0005H239.157V20.2504H238.42L238.421 21.0005ZM236.21 22.5002H236.947V21.7502H236.21V22.5002ZM240.631 22.5002H241.368V21.7502H240.631V22.5002ZM238.421 24.0012H239.157V23.2515H238.42L238.421 24.0012ZM242.842 21.0005H243.579V20.2504H242.842V21.0005ZM246.526 22.5004H245.79V21.0007H244.316V22.5004H243.579V23.2504H242.106V24.75H243.579V25.5002H244.316V27H245.79V25.5002H246.526V24.75H248V23.2504H246.526V22.5004ZM245.79 24.75H244.316V23.2504H245.79V24.75ZM225.157 21.0005H225.894V20.2504H225.157V21.0005H225.157ZM224.421 22.5004H223.684V21.0007H222.21V22.5004H221.474V23.2504H220V24.75H221.474V25.5002H222.21V27H223.684V25.5002H224.421V24.75H225.895V23.2504H224.421V22.5004H224.421ZM223.684 24.75H222.21V23.2504H223.684V24.75H223.684Z" fill="#F7ECDC"/>
<path d="M139.368 4.49964H140.104V3.74981H139.368V4.49964H139.368ZM139.368 7.50046H140.104V6.7503H139.368V7.50046H139.368ZM141.578 6.00081H142.315V5.25081H141.578V6.00081ZM143.789 4.4993H144.525V3.74981H143.789V4.49947V4.4993ZM143.789 19.5004H144.525V18.7502H143.789V19.5004ZM139.368 16.5006H140.104V15.7511H139.368V16.5009V16.5006H139.368ZM141.578 18.0006H142.315V17.2504H141.578L141.578 18.0006ZM139.368 19.5006H140.104V18.7504H139.368V19.5006ZM152.631 10.5003H153.368V9.75011H152.631V10.5003ZM150.421 12.0001H151.157V11.2499H150.42L150.421 12.0001ZM152.631 13.4999H153.368V12.7503H152.631V13.4999ZM146 6.00064H146.737V5.25064H146V6.00081L146 6.00064ZM148.21 4.4993H148.947V3.74981H148.21V4.49947V4.4993ZM143.788 7.50063H144.525V6.75046H143.789L143.788 7.50063ZM148.21 7.50063H148.947V6.75046H148.21V7.50063ZM150.42 6.00097H151.157V5.25098H150.42V6.00114L150.42 6.00097ZM146 9.00028H146.737V8.25062H146L146 9.00028ZM150.42 9.00028H151.157V8.25062H150.42L150.42 9.00028ZM152.631 7.50046H153.367V6.7503H152.631V7.50046ZM148.21 10.5008H148.947V9.75061H148.21L148.21 10.5008ZM144.525 15.7506H143.788V16.5007H144.525L144.525 15.7506ZM146.736 17.2507H146V18.0006H146.737V17.2507H146.736ZM148.21 19.5004H148.947V18.7506H148.21L148.21 19.5004ZM141.578 15.0011H142.314V14.2509H141.578V15.0011H141.578ZM150.42 18.0006H151.157V17.2504H150.42L150.42 18.0006ZM152.631 16.5004H153.367V15.7509H152.631V16.5004ZM152.631 19.5006H153.367V18.7504H152.631V19.5006ZM139.368 10.5003H140.104V9.75011H139.368V10.5003H139.368ZM141.578 8.99994H142.315V8.25062H141.578V9.00028L141.578 8.99994ZM152.631 4.49947H153.367V3.74981H152.631V4.49947ZM141.578 12.0001H142.315V11.2503H141.578L141.578 12.0001ZM143.789 10.5006H144.525V9.75045H143.789V10.5006ZM139.368 13.5003H140.104V12.7504H139.368V13.5003ZM150.421 15.0013H151.157V14.2511H150.42L150.421 15.0013ZM148.21 16.5007H148.947V15.7513H148.21V16.5007ZM147.473 11.9999H146.737V10.5001H145.263V11.9999H144.526V12.7499H143.053V14.2497H144.526V14.9997H145.263V16.4996H146.737V14.9999H147.473V14.2497H148.947V12.7499H147.473V11.9999H147.473ZM146.737 14.2497H145.263V12.7499H146.737L146.737 14.2497ZM154.842 9.00062H155.579V8.25079H154.842V9.00062ZM154.842 12.0003H155.579V11.2503H154.842V12.0003ZM154.842 15.0013H155.579V14.2511H154.842V15.0013ZM154.842 18.0009H155.579V17.2507H154.842V18.0009ZM155.579 5.25098H154.842V6.00114H155.579V5.25098ZM158.526 1.50016H157.79V0.000337289H156.316V1.50016H155.579V2.25015H154.105V3.75015H155.579V4.4998H156.316V5.99996H157.79V4.49964H158.526V3.74998H160V2.24999H158.526V1.50016ZM157.79 3.74981H156.316V2.24982H157.79V3.74981ZM137.157 6.00047H137.894V5.25081H137.157V6.00097V6.00047H137.157ZM135.684 6.75046H134.946V7.50063H135.684V6.75046ZM137.158 9.00028H137.894V8.25062H137.157L137.158 9.00028ZM134.946 10.5004H135.684V9.75028H134.946V10.5004ZM134.946 13.5001H135.684V12.7503H134.946V13.5001ZM137.157 12.0001H137.894V11.2503H137.157V12.0001ZM134.946 19.5009H135.684V18.7507H134.946V19.5009ZM137.157 15.0014H137.894V14.2513H137.157L137.157 15.0014ZM134.946 16.5007H135.684V15.7513H134.946V16.5007ZM137.157 18.0011H137.894V17.2509H137.157L137.157 18.0011ZM136.42 1.49965H135.684V0H134.21V1.49982H133.474V2.24982H132V3.74981H133.474V4.4993H134.21V5.99946H135.684V4.49913H136.421V3.74998H137.895V2.24999H136.421V1.49999H136.42V1.49965ZM135.684 3.74981H134.21V2.24982H135.684V3.74981H135.684ZM141.578 21.0005H142.315V20.2504H141.578V21.0005ZM143.789 22.5002H144.525V21.7502H143.789V22.5002ZM146 21.0005H146.737V20.2504H146L146 21.0005ZM146 24.0012H146.737V23.2515H146L146 24.0012ZM141.578 24.0012H142.315V23.2515H141.578V24.0012ZM139.368 22.5002H140.104V21.7502H139.368V22.5002ZM150.421 21.0005H151.157V20.2504H150.42L150.421 21.0005ZM148.21 22.5002H148.947V21.7502H148.21V22.5002ZM152.631 22.5002H153.368V21.7502H152.631V22.5002ZM150.421 24.0012H151.157V23.2515H150.42L150.421 24.0012ZM154.842 21.0005H155.579V20.2504H154.842V21.0005ZM158.526 22.5004H157.79V21.0007H156.316V22.5004H155.579V23.2504H154.106V24.75H155.579V25.5002H156.316V27H157.79V25.5002H158.526V24.75H160V23.2504H158.526V22.5004ZM157.79 24.75H156.316V23.2504H157.79V24.75ZM137.157 21.0005H137.894V20.2504H137.157V21.0005H137.157ZM136.421 22.5004H135.684V21.0007H134.21V22.5004H133.474V23.2504H132V24.75H133.474V25.5002H134.21V27H135.684V25.5002H136.421V24.75H137.895V23.2504H136.421V22.5004H136.421ZM135.684 24.75H134.21V23.2504H135.684V24.75H135.684Z" fill="#F7ECDC"/>
<path d="M315.368 4.49964H316.104V3.74981H315.368V4.49964H315.368ZM315.368 7.50046H316.104V6.7503H315.368V7.50046H315.368ZM317.578 6.00081H318.315V5.25081H317.578V6.00081ZM319.789 4.4993H320.525V3.74981H319.789V4.49947V4.4993ZM319.789 19.5004H320.525V18.7502H319.789V19.5004ZM315.368 16.5006H316.104V15.7511H315.368V16.5009V16.5006H315.368ZM317.578 18.0006H318.315V17.2504H317.578L317.578 18.0006ZM315.368 19.5006H316.104V18.7504H315.368V19.5006ZM328.631 10.5003H329.368V9.75011H328.631V10.5003ZM326.421 12.0001H327.157V11.2499H326.42L326.421 12.0001ZM328.631 13.4999H329.368V12.7503H328.631V13.4999ZM322 6.00064H322.737V5.25064H322V6.00081L322 6.00064ZM324.21 4.4993H324.947V3.74981H324.21V4.49947V4.4993ZM319.788 7.50063H320.525V6.75046H319.789L319.788 7.50063ZM324.21 7.50063H324.947V6.75046H324.21V7.50063ZM326.42 6.00097H327.157V5.25098H326.42V6.00114L326.42 6.00097ZM322 9.00028H322.737V8.25062H322L322 9.00028ZM326.42 9.00028H327.157V8.25062H326.42L326.42 9.00028ZM328.631 7.50046H329.367V6.7503H328.631V7.50046ZM324.21 10.5008H324.947V9.75061H324.21L324.21 10.5008ZM320.525 15.7506H319.788V16.5007H320.525L320.525 15.7506ZM322.736 17.2507H322V18.0006H322.737V17.2507H322.736ZM324.21 19.5004H324.947V18.7506H324.21L324.21 19.5004ZM317.578 15.0011H318.314V14.2509H317.578V15.0011H317.578ZM326.42 18.0006H327.157V17.2504H326.42L326.42 18.0006ZM328.631 16.5004H329.367V15.7509H328.631V16.5004ZM328.631 19.5006H329.367V18.7504H328.631V19.5006ZM315.368 10.5003H316.104V9.75011H315.368V10.5003H315.368ZM317.578 8.99994H318.315V8.25062H317.578V9.00028L317.578 8.99994ZM328.631 4.49947H329.367V3.74981H328.631V4.49947ZM317.578 12.0001H318.315V11.2503H317.578L317.578 12.0001ZM319.789 10.5006H320.525V9.75045H319.789V10.5006ZM315.368 13.5003H316.104V12.7504H315.368V13.5003ZM326.421 15.0013H327.157V14.2511H326.42L326.421 15.0013ZM324.21 16.5007H324.947V15.7513H324.21V16.5007ZM323.473 11.9999H322.737V10.5001H321.263V11.9999H320.526V12.7499H319.053V14.2497H320.526V14.9997H321.263V16.4996H322.737V14.9999H323.473V14.2497H324.947V12.7499H323.473V11.9999H323.473ZM322.737 14.2497H321.263V12.7499H322.737L322.737 14.2497ZM330.842 9.00062H331.579V8.25079H330.842V9.00062ZM330.842 12.0003H331.579V11.2503H330.842V12.0003ZM330.842 15.0013H331.579V14.2511H330.842V15.0013ZM330.842 18.0009H331.579V17.2507H330.842V18.0009ZM331.579 5.25098H330.842V6.00114H331.579V5.25098ZM334.526 1.50016H333.79V0.000337289H332.316V1.50016H331.579V2.25015H330.105V3.75015H331.579V4.4998H332.316V5.99996H333.79V4.49964H334.526V3.74998H336V2.24999H334.526V1.50016ZM333.79 3.74981H332.316V2.24982H333.79V3.74981ZM313.157 6.00047H313.894V5.25081H313.157V6.00097V6.00047H313.157ZM311.684 6.75046H310.946V7.50063H311.684V6.75046ZM313.158 9.00028H313.894V8.25062H313.157L313.158 9.00028ZM310.946 10.5004H311.684V9.75028H310.946V10.5004ZM310.946 13.5001H311.684V12.7503H310.946V13.5001ZM313.157 12.0001H313.894V11.2503H313.157V12.0001ZM310.946 19.5009H311.684V18.7507H310.946V19.5009ZM313.157 15.0014H313.894V14.2513H313.157L313.157 15.0014ZM310.946 16.5007H311.684V15.7513H310.946V16.5007ZM313.157 18.0011H313.894V17.2509H313.157L313.157 18.0011ZM312.42 1.49965H311.684V0H310.21V1.49982H309.474V2.24982H308V3.74981H309.474V4.4993H310.21V5.99946H311.684V4.49913H312.421V3.74998H313.895V2.24999H312.421V1.49999H312.42V1.49965ZM311.684 3.74981H310.21V2.24982H311.684V3.74981H311.684ZM317.578 21.0005H318.315V20.2504H317.578V21.0005ZM319.789 22.5002H320.525V21.7502H319.789V22.5002ZM322 21.0005H322.737V20.2504H322L322 21.0005ZM322 24.0012H322.737V23.2515H322L322 24.0012ZM317.578 24.0012H318.315V23.2515H317.578V24.0012ZM315.368 22.5002H316.104V21.7502H315.368V22.5002ZM326.421 21.0005H327.157V20.2504H326.42L326.421 21.0005ZM324.21 22.5002H324.947V21.7502H324.21V22.5002ZM328.631 22.5002H329.368V21.7502H328.631V22.5002ZM326.421 24.0012H327.157V23.2515H326.42L326.421 24.0012ZM330.842 21.0005H331.579V20.2504H330.842V21.0005ZM334.526 22.5004H333.79V21.0007H332.316V22.5004H331.579V23.2504H330.106V24.75H331.579V25.5002H332.316V27H333.79V25.5002H334.526V24.75H336V23.2504H334.526V22.5004ZM333.79 24.75H332.316V23.2504H333.79V24.75ZM313.157 21.0005H313.894V20.2504H313.157V21.0005H313.157ZM312.421 22.5004H311.684V21.0007H310.21V22.5004H309.474V23.2504H308V24.75H309.474V25.5002H310.21V27H311.684V25.5002H312.421V24.75H313.895V23.2504H312.421V22.5004H312.421ZM311.684 24.75H310.21V23.2504H311.684V24.75H311.684Z" fill="#F7ECDC"/>
<path d="M29.3677 4.49964H30.1043V3.74981H29.3679V4.49964H29.3677ZM29.3677 7.50046H30.1043V6.7503H29.3679V7.50046H29.3677ZM31.578 6.00081H32.3148V5.25081H31.578V6.00081ZM33.7885 4.4993H34.5253V3.74981H33.7885V4.49947V4.4993ZM33.7885 19.5004H34.5253V18.7502H33.7885V19.5004ZM29.3677 16.5006H30.1043V15.7511H29.3679V16.5009V16.5006H29.3677ZM31.5779 18.0006H32.3146V17.2504H31.578L31.5779 18.0006ZM29.3679 19.5006H30.1045V18.7504H29.3679V19.5006ZM42.6308 10.5003H43.3676V9.75011H42.6308V10.5003ZM40.4206 12.0001H41.1574V11.2499H40.4203L40.4206 12.0001ZM42.6308 13.4999H43.3676V12.7503H42.6308V13.4999ZM35.9998 6.00064H36.7366V5.25064H35.9997V6.00081L35.9998 6.00064ZM38.2102 4.4993H38.9469V3.74981H38.2102V4.49947V4.4993ZM33.7884 7.50063H34.5251V6.75046H33.7885L33.7884 7.50063ZM38.2102 7.50063H38.9469V6.75046H38.2102V7.50063ZM40.4205 6.00097H41.1572V5.25098H40.4203V6.00114L40.4205 6.00097ZM35.9998 9.00028H36.7366V8.25062H35.9997L35.9998 9.00028ZM40.4205 9.00028H41.1572V8.25062H40.4203L40.4205 9.00028ZM42.6306 7.50046H43.3674V6.7503H42.6306V7.50046ZM38.21 10.5008H38.9469V9.75061H38.2102L38.21 10.5008ZM34.5253 15.7506H33.7884V16.5007H34.5251L34.5253 15.7506ZM36.7364 17.2507H35.9997V18.0006H36.7366V17.2507H36.7364ZM38.2103 19.5004H38.9469V18.7506H38.2102L38.2103 19.5004ZM31.5777 15.0011H32.3145V14.2509H31.578V15.0011H31.5777ZM40.4205 18.0006H41.1572V17.2504H40.4203L40.4205 18.0006ZM42.6306 16.5004H43.3674V15.7509H42.6306V16.5004ZM42.6306 19.5006H43.3674V18.7504H42.6306V19.5006ZM29.3677 10.5003H30.1043V9.75011H29.3679V10.5003H29.3677ZM31.5779 8.99994H32.3146V8.25062H31.578V9.00028L31.5779 8.99994ZM42.6306 4.49947H43.3674V3.74981H42.6306V4.49947ZM31.5779 12.0001H32.3146V11.2503H31.578L31.5779 12.0001ZM33.7885 10.5006H34.5253V9.75045H33.7885V10.5006ZM29.3679 13.5003H30.1045V12.7504H29.3679V13.5003ZM40.4206 15.0013H41.1574V14.2511H40.4203L40.4206 15.0013ZM38.2103 16.5007H38.9471V15.7513H38.2103V16.5007ZM37.4732 11.9999H36.7368V10.5001H35.2631V11.9999H34.5263V12.7499H33.0527V14.2497H34.5265V14.9997H35.2631V16.4996H36.7366V14.9999H37.4732V14.2497H38.9469V12.7499H37.4734V11.9999H37.4732ZM36.7369 14.2497H35.2632V12.7499H36.7368L36.7369 14.2497ZM44.8423 9.00062H45.5789V8.25079H44.8423V9.00062ZM44.8423 12.0003H45.5789V11.2503H44.8423V12.0003ZM44.8423 15.0013H45.5789V14.2511H44.8423V15.0013ZM44.8423 18.0009H45.5789V17.2507H44.8423V18.0009ZM45.5789 5.25098H44.8423V6.00114H45.5789V5.25098ZM48.5263 1.50016H47.7895V0.000337289H46.316V1.50016H45.579V2.25015H44.1055V3.75015H45.579V4.4998H46.316V5.99996H47.7895V4.49964H48.5263V3.74998H49.9998V2.24999H48.5263V1.50016ZM47.7895 3.74981H46.316V2.24982H47.7895V3.74981ZM27.1572 6.00047H27.894V5.25081H27.1574V6.00097V6.00047H27.1572ZM25.6837 6.75046H24.9461V7.50063H25.6837V6.75046ZM27.1576 9.00028H27.894V8.25062H27.1574L27.1576 9.00028ZM24.9459 10.5004H25.6835V9.75028H24.9459V10.5004ZM24.9459 13.5001H25.6835V12.7503H24.9459V13.5001ZM27.1572 12.0001H27.8938V11.2503H27.1572V12.0001ZM24.9463 19.5009H25.6839V18.7507H24.9463V19.5009ZM27.1574 15.0014H27.8938V14.2513H27.1571L27.1574 15.0014ZM24.9463 16.5007H25.6839V15.7513H24.9463V16.5007ZM27.1574 18.0011H27.8937V17.2509H27.1571L27.1574 18.0011ZM26.4201 1.49965H25.6839V0H24.2102V1.49982H23.4735V2.24982H22V3.74981H23.4737V4.4993H24.2105V5.99946H25.684V4.49913H26.421V3.74998H27.8947V2.24999H26.4211V1.49999H26.4201V1.49965ZM25.6839 3.74981H24.2102V2.24982H25.6837V3.74981H25.6839ZM31.578 21.0005H32.3148V20.2504H31.578V21.0005ZM33.7885 22.5002H34.5253V21.7502H33.7885V22.5002ZM35.9998 21.0005H36.7368V20.2504H35.9997L35.9998 21.0005ZM35.9998 24.0012H36.7368V23.2515H35.9997L35.9998 24.0012ZM31.578 24.0012H32.3148V23.2515H31.578V24.0012ZM29.3679 22.5002H30.1045V21.7502H29.3679V22.5002ZM40.4206 21.0005H41.1574V20.2504H40.4203L40.4206 21.0005ZM38.2103 22.5002H38.9471V21.7502H38.2103V22.5002ZM42.6308 22.5002H43.3676V21.7502H42.6308V22.5002ZM40.4206 24.0012H41.1574V23.2515H40.4203L40.4206 24.0012ZM44.8424 21.0005H45.579V20.2504H44.8424V21.0005ZM48.5265 22.5004H47.7897V21.0007H46.3161V22.5004H45.5792V23.2504H44.1057V24.75H45.5792V25.5002H46.3161V27H47.7897V25.5002H48.5265V24.75H50V23.2504H48.5265V22.5004ZM47.7897 24.75H46.3161V23.2504H47.7897V24.75ZM27.1572 21.0005H27.894V20.2504H27.1574V21.0005H27.1572ZM26.4206 22.5004H25.6839V21.0007H24.2102V22.5004H23.4735V23.2504H22V24.75H23.4737V25.5002H24.2105V27H25.684V25.5002H26.421V24.75H27.8947V23.2504H26.4211V22.5004H26.4206ZM25.6839 24.75H24.2102V23.2504H25.6837V24.75H25.6839Z" fill="#F7ECDC"/>
<path d="M205.368 4.49964H206.104V3.74981H205.368V4.49964H205.368ZM205.368 7.50046H206.104V6.7503H205.368V7.50046H205.368ZM207.578 6.00081H208.315V5.25081H207.578V6.00081ZM209.789 4.4993H210.525V3.74981H209.789V4.49947V4.4993ZM209.789 19.5004H210.525V18.7502H209.789V19.5004ZM205.368 16.5006H206.104V15.7511H205.368V16.5009V16.5006H205.368ZM207.578 18.0006H208.315V17.2504H207.578L207.578 18.0006ZM205.368 19.5006H206.104V18.7504H205.368V19.5006ZM218.631 10.5003H219.368V9.75011H218.631V10.5003ZM216.421 12.0001H217.157V11.2499H216.42L216.421 12.0001ZM218.631 13.4999H219.368V12.7503H218.631V13.4999ZM212 6.00064H212.737V5.25064H212V6.00081L212 6.00064ZM214.21 4.4993H214.947V3.74981H214.21V4.49947V4.4993ZM209.788 7.50063H210.525V6.75046H209.789L209.788 7.50063ZM214.21 7.50063H214.947V6.75046H214.21V7.50063ZM216.42 6.00097H217.157V5.25098H216.42V6.00114L216.42 6.00097ZM212 9.00028H212.737V8.25062H212L212 9.00028ZM216.42 9.00028H217.157V8.25062H216.42L216.42 9.00028ZM218.631 7.50046H219.367V6.7503H218.631V7.50046ZM214.21 10.5008H214.947V9.75061H214.21L214.21 10.5008ZM210.525 15.7506H209.788V16.5007H210.525L210.525 15.7506ZM212.736 17.2507H212V18.0006H212.737V17.2507H212.736ZM214.21 19.5004H214.947V18.7506H214.21L214.21 19.5004ZM207.578 15.0011H208.314V14.2509H207.578V15.0011H207.578ZM216.42 18.0006H217.157V17.2504H216.42L216.42 18.0006ZM218.631 16.5004H219.367V15.7509H218.631V16.5004ZM218.631 19.5006H219.367V18.7504H218.631V19.5006ZM205.368 10.5003H206.104V9.75011H205.368V10.5003H205.368ZM207.578 8.99994H208.315V8.25062H207.578V9.00028L207.578 8.99994ZM218.631 4.49947H219.367V3.74981H218.631V4.49947ZM207.578 12.0001H208.315V11.2503H207.578L207.578 12.0001ZM209.789 10.5006H210.525V9.75045H209.789V10.5006ZM205.368 13.5003H206.104V12.7504H205.368V13.5003ZM216.421 15.0013H217.157V14.2511H216.42L216.421 15.0013ZM214.21 16.5007H214.947V15.7513H214.21V16.5007ZM213.473 11.9999H212.737V10.5001H211.263V11.9999H210.526V12.7499H209.053V14.2497H210.526V14.9997H211.263V16.4996H212.737V14.9999H213.473V14.2497H214.947V12.7499H213.473V11.9999H213.473ZM212.737 14.2497H211.263V12.7499H212.737L212.737 14.2497ZM220.842 9.00062H221.579V8.25079H220.842V9.00062ZM220.842 12.0003H221.579V11.2503H220.842V12.0003ZM220.842 15.0013H221.579V14.2511H220.842V15.0013ZM220.842 18.0009H221.579V17.2507H220.842V18.0009ZM221.579 5.25098H220.842V6.00114H221.579V5.25098ZM224.526 1.50016H223.79V0.000337289H222.316V1.50016H221.579V2.25015H220.105V3.75015H221.579V4.4998H222.316V5.99996H223.79V4.49964H224.526V3.74998H226V2.24999H224.526V1.50016ZM223.79 3.74981H222.316V2.24982H223.79V3.74981ZM203.157 6.00047H203.894V5.25081H203.157V6.00097V6.00047H203.157ZM201.684 6.75046H200.946V7.50063H201.684V6.75046ZM203.158 9.00028H203.894V8.25062H203.157L203.158 9.00028ZM200.946 10.5004H201.684V9.75028H200.946V10.5004ZM200.946 13.5001H201.684V12.7503H200.946V13.5001ZM203.157 12.0001H203.894V11.2503H203.157V12.0001ZM200.946 19.5009H201.684V18.7507H200.946V19.5009ZM203.157 15.0014H203.894V14.2513H203.157L203.157 15.0014ZM200.946 16.5007H201.684V15.7513H200.946V16.5007ZM203.157 18.0011H203.894V17.2509H203.157L203.157 18.0011ZM202.42 1.49965H201.684V0H200.21V1.49982H199.474V2.24982H198V3.74981H199.474V4.4993H200.21V5.99946H201.684V4.49913H202.421V3.74998H203.895V2.24999H202.421V1.49999H202.42V1.49965ZM201.684 3.74981H200.21V2.24982H201.684V3.74981H201.684ZM207.578 21.0005H208.315V20.2504H207.578V21.0005ZM209.789 22.5002H210.525V21.7502H209.789V22.5002ZM212 21.0005H212.737V20.2504H212L212 21.0005ZM212 24.0012H212.737V23.2515H212L212 24.0012ZM207.578 24.0012H208.315V23.2515H207.578V24.0012ZM205.368 22.5002H206.104V21.7502H205.368V22.5002ZM216.421 21.0005H217.157V20.2504H216.42L216.421 21.0005ZM214.21 22.5002H214.947V21.7502H214.21V22.5002ZM218.631 22.5002H219.368V21.7502H218.631V22.5002ZM216.421 24.0012H217.157V23.2515H216.42L216.421 24.0012ZM220.842 21.0005H221.579V20.2504H220.842V21.0005ZM224.526 22.5004H223.79V21.0007H222.316V22.5004H221.579V23.2504H220.106V24.75H221.579V25.5002H222.316V27H223.79V25.5002H224.526V24.75H226V23.2504H224.526V22.5004ZM223.79 24.75H222.316V23.2504H223.79V24.75ZM203.157 21.0005H203.894V20.2504H203.157V21.0005H203.157ZM202.421 22.5004H201.684V21.0007H200.21V22.5004H199.474V23.2504H198V24.75H199.474V25.5002H200.21V27H201.684V25.5002H202.421V24.75H203.895V23.2504H202.421V22.5004H202.421ZM201.684 24.75H200.21V23.2504H201.684V24.75H201.684Z" fill="#F7ECDC"/>
<path d="M117.368 4.49964H118.104V3.74981H117.368V4.49964H117.368ZM117.368 7.50046H118.104V6.7503H117.368V7.50046H117.368ZM119.578 6.00081H120.315V5.25081H119.578V6.00081ZM121.789 4.4993H122.525V3.74981H121.789V4.49947V4.4993ZM121.789 19.5004H122.525V18.7502H121.789V19.5004ZM117.368 16.5006H118.104V15.7511H117.368V16.5009V16.5006H117.368ZM119.578 18.0006H120.315V17.2504H119.578L119.578 18.0006ZM117.368 19.5006H118.104V18.7504H117.368V19.5006ZM130.631 10.5003H131.368V9.75011H130.631V10.5003ZM128.421 12.0001H129.157V11.2499H128.42L128.421 12.0001ZM130.631 13.4999H131.368V12.7503H130.631V13.4999ZM124 6.00064H124.737V5.25064H124V6.00081L124 6.00064ZM126.21 4.4993H126.947V3.74981H126.21V4.49947V4.4993ZM121.788 7.50063H122.525V6.75046H121.789L121.788 7.50063ZM126.21 7.50063H126.947V6.75046H126.21V7.50063ZM128.42 6.00097H129.157V5.25098H128.42V6.00114L128.42 6.00097ZM124 9.00028H124.737V8.25062H124L124 9.00028ZM128.42 9.00028H129.157V8.25062H128.42L128.42 9.00028ZM130.631 7.50046H131.367V6.7503H130.631V7.50046ZM126.21 10.5008H126.947V9.75061H126.21L126.21 10.5008ZM122.525 15.7506H121.788V16.5007H122.525L122.525 15.7506ZM124.736 17.2507H124V18.0006H124.737V17.2507H124.736ZM126.21 19.5004H126.947V18.7506H126.21L126.21 19.5004ZM119.578 15.0011H120.314V14.2509H119.578V15.0011H119.578ZM128.42 18.0006H129.157V17.2504H128.42L128.42 18.0006ZM130.631 16.5004H131.367V15.7509H130.631V16.5004ZM130.631 19.5006H131.367V18.7504H130.631V19.5006ZM117.368 10.5003H118.104V9.75011H117.368V10.5003H117.368ZM119.578 8.99994H120.315V8.25062H119.578V9.00028L119.578 8.99994ZM130.631 4.49947H131.367V3.74981H130.631V4.49947ZM119.578 12.0001H120.315V11.2503H119.578L119.578 12.0001ZM121.789 10.5006H122.525V9.75045H121.789V10.5006ZM117.368 13.5003H118.104V12.7504H117.368V13.5003ZM128.421 15.0013H129.157V14.2511H128.42L128.421 15.0013ZM126.21 16.5007H126.947V15.7513H126.21V16.5007ZM125.473 11.9999H124.737V10.5001H123.263V11.9999H122.526V12.7499H121.053V14.2497H122.526V14.9997H123.263V16.4996H124.737V14.9999H125.473V14.2497H126.947V12.7499H125.473V11.9999H125.473ZM124.737 14.2497H123.263V12.7499H124.737L124.737 14.2497ZM132.842 9.00062H133.579V8.25079H132.842V9.00062ZM132.842 12.0003H133.579V11.2503H132.842V12.0003ZM132.842 15.0013H133.579V14.2511H132.842V15.0013ZM132.842 18.0009H133.579V17.2507H132.842V18.0009ZM133.579 5.25098H132.842V6.00114H133.579V5.25098ZM136.526 1.50016H135.79V0.000337289H134.316V1.50016H133.579V2.25015H132.105V3.75015H133.579V4.4998H134.316V5.99996H135.79V4.49964H136.526V3.74998H138V2.24999H136.526V1.50016ZM135.79 3.74981H134.316V2.24982H135.79V3.74981ZM115.157 6.00047H115.894V5.25081H115.157V6.00097V6.00047H115.157ZM113.684 6.75046H112.946V7.50063H113.684V6.75046ZM115.158 9.00028H115.894V8.25062H115.157L115.158 9.00028ZM112.946 10.5004H113.684V9.75028H112.946V10.5004ZM112.946 13.5001H113.684V12.7503H112.946V13.5001ZM115.157 12.0001H115.894V11.2503H115.157V12.0001ZM112.946 19.5009H113.684V18.7507H112.946V19.5009ZM115.157 15.0014H115.894V14.2513H115.157L115.157 15.0014ZM112.946 16.5007H113.684V15.7513H112.946V16.5007ZM115.157 18.0011H115.894V17.2509H115.157L115.157 18.0011ZM114.42 1.49965H113.684V0H112.21V1.49982H111.474V2.24982H110V3.74981H111.474V4.4993H112.21V5.99946H113.684V4.49913H114.421V3.74998H115.895V2.24999H114.421V1.49999H114.42V1.49965ZM113.684 3.74981H112.21V2.24982H113.684V3.74981H113.684ZM119.578 21.0005H120.315V20.2504H119.578V21.0005ZM121.789 22.5002H122.525V21.7502H121.789V22.5002ZM124 21.0005H124.737V20.2504H124L124 21.0005ZM124 24.0012H124.737V23.2515H124L124 24.0012ZM119.578 24.0012H120.315V23.2515H119.578V24.0012ZM117.368 22.5002H118.104V21.7502H117.368V22.5002ZM128.421 21.0005H129.157V20.2504H128.42L128.421 21.0005ZM126.21 22.5002H126.947V21.7502H126.21V22.5002ZM130.631 22.5002H131.368V21.7502H130.631V22.5002ZM128.421 24.0012H129.157V23.2515H128.42L128.421 24.0012ZM132.842 21.0005H133.579V20.2504H132.842V21.0005ZM136.526 22.5004H135.79V21.0007H134.316V22.5004H133.579V23.2504H132.106V24.75H133.579V25.5002H134.316V27H135.79V25.5002H136.526V24.75H138V23.2504H136.526V22.5004ZM135.79 24.75H134.316V23.2504H135.79V24.75ZM115.157 21.0005H115.894V20.2504H115.157V21.0005H115.157ZM114.421 22.5004H113.684V21.0007H112.21V22.5004H111.474V23.2504H110V24.75H111.474V25.5002H112.21V27H113.684V25.5002H114.421V24.75H115.895V23.2504H114.421V22.5004H114.421ZM113.684 24.75H112.21V23.2504H113.684V24.75H113.684Z" fill="#F7ECDC"/>
<path d="M293.368 4.49964H294.104V3.74981H293.368V4.49964H293.368ZM293.368 7.50046H294.104V6.7503H293.368V7.50046H293.368ZM295.578 6.00081H296.315V5.25081H295.578V6.00081ZM297.789 4.4993H298.525V3.74981H297.789V4.49947V4.4993ZM297.789 19.5004H298.525V18.7502H297.789V19.5004ZM293.368 16.5006H294.104V15.7511H293.368V16.5009V16.5006H293.368ZM295.578 18.0006H296.315V17.2504H295.578L295.578 18.0006ZM293.368 19.5006H294.104V18.7504H293.368V19.5006ZM306.631 10.5003H307.368V9.75011H306.631V10.5003ZM304.421 12.0001H305.157V11.2499H304.42L304.421 12.0001ZM306.631 13.4999H307.368V12.7503H306.631V13.4999ZM300 6.00064H300.737V5.25064H300V6.00081L300 6.00064ZM302.21 4.4993H302.947V3.74981H302.21V4.49947V4.4993ZM297.788 7.50063H298.525V6.75046H297.789L297.788 7.50063ZM302.21 7.50063H302.947V6.75046H302.21V7.50063ZM304.42 6.00097H305.157V5.25098H304.42V6.00114L304.42 6.00097ZM300 9.00028H300.737V8.25062H300L300 9.00028ZM304.42 9.00028H305.157V8.25062H304.42L304.42 9.00028ZM306.631 7.50046H307.367V6.7503H306.631V7.50046ZM302.21 10.5008H302.947V9.75061H302.21L302.21 10.5008ZM298.525 15.7506H297.788V16.5007H298.525L298.525 15.7506ZM300.736 17.2507H300V18.0006H300.737V17.2507H300.736ZM302.21 19.5004H302.947V18.7506H302.21L302.21 19.5004ZM295.578 15.0011H296.314V14.2509H295.578V15.0011H295.578ZM304.42 18.0006H305.157V17.2504H304.42L304.42 18.0006ZM306.631 16.5004H307.367V15.7509H306.631V16.5004ZM306.631 19.5006H307.367V18.7504H306.631V19.5006ZM293.368 10.5003H294.104V9.75011H293.368V10.5003H293.368ZM295.578 8.99994H296.315V8.25062H295.578V9.00028L295.578 8.99994ZM306.631 4.49947H307.367V3.74981H306.631V4.49947ZM295.578 12.0001H296.315V11.2503H295.578L295.578 12.0001ZM297.789 10.5006H298.525V9.75045H297.789V10.5006ZM293.368 13.5003H294.104V12.7504H293.368V13.5003ZM304.421 15.0013H305.157V14.2511H304.42L304.421 15.0013ZM302.21 16.5007H302.947V15.7513H302.21V16.5007ZM301.473 11.9999H300.737V10.5001H299.263V11.9999H298.526V12.7499H297.053V14.2497H298.526V14.9997H299.263V16.4996H300.737V14.9999H301.473V14.2497H302.947V12.7499H301.473V11.9999H301.473ZM300.737 14.2497H299.263V12.7499H300.737L300.737 14.2497ZM308.842 9.00062H309.579V8.25079H308.842V9.00062ZM308.842 12.0003H309.579V11.2503H308.842V12.0003ZM308.842 15.0013H309.579V14.2511H308.842V15.0013ZM308.842 18.0009H309.579V17.2507H308.842V18.0009ZM309.579 5.25098H308.842V6.00114H309.579V5.25098ZM312.526 1.50016H311.79V0.000337289H310.316V1.50016H309.579V2.25015H308.105V3.75015H309.579V4.4998H310.316V5.99996H311.79V4.49964H312.526V3.74998H314V2.24999H312.526V1.50016ZM311.79 3.74981H310.316V2.24982H311.79V3.74981ZM291.157 6.00047H291.894V5.25081H291.157V6.00097V6.00047H291.157ZM289.684 6.75046H288.946V7.50063H289.684V6.75046ZM291.158 9.00028H291.894V8.25062H291.157L291.158 9.00028ZM288.946 10.5004H289.684V9.75028H288.946V10.5004ZM288.946 13.5001H289.684V12.7503H288.946V13.5001ZM291.157 12.0001H291.894V11.2503H291.157V12.0001ZM288.946 19.5009H289.684V18.7507H288.946V19.5009ZM291.157 15.0014H291.894V14.2513H291.157L291.157 15.0014ZM288.946 16.5007H289.684V15.7513H288.946V16.5007ZM291.157 18.0011H291.894V17.2509H291.157L291.157 18.0011ZM290.42 1.49965H289.684V0H288.21V1.49982H287.474V2.24982H286V3.74981H287.474V4.4993H288.21V5.99946H289.684V4.49913H290.421V3.74998H291.895V2.24999H290.421V1.49999H290.42V1.49965ZM289.684 3.74981H288.21V2.24982H289.684V3.74981H289.684ZM295.578 21.0005H296.315V20.2504H295.578V21.0005ZM297.789 22.5002H298.525V21.7502H297.789V22.5002ZM300 21.0005H300.737V20.2504H300L300 21.0005ZM300 24.0012H300.737V23.2515H300L300 24.0012ZM295.578 24.0012H296.315V23.2515H295.578V24.0012ZM293.368 22.5002H294.104V21.7502H293.368V22.5002ZM304.421 21.0005H305.157V20.2504H304.42L304.421 21.0005ZM302.21 22.5002H302.947V21.7502H302.21V22.5002ZM306.631 22.5002H307.368V21.7502H306.631V22.5002ZM304.421 24.0012H305.157V23.2515H304.42L304.421 24.0012ZM308.842 21.0005H309.579V20.2504H308.842V21.0005ZM312.526 22.5004H311.79V21.0007H310.316V22.5004H309.579V23.2504H308.106V24.75H309.579V25.5002H310.316V27H311.79V25.5002H312.526V24.75H314V23.2504H312.526V22.5004ZM311.79 24.75H310.316V23.2504H311.79V24.75ZM291.157 21.0005H291.894V20.2504H291.157V21.0005H291.157ZM290.421 22.5004H289.684V21.0007H288.21V22.5004H287.474V23.2504H286V24.75H287.474V25.5002H288.21V27H289.684V25.5002H290.421V24.75H291.895V23.2504H290.421V22.5004H290.421ZM289.684 24.75H288.21V23.2504H289.684V24.75H289.684Z" fill="#F7ECDC"/>
<path d="M73.3677 4.49964H74.1043V3.74981H73.3679V4.49964H73.3677ZM73.3677 7.50046H74.1043V6.7503H73.3679V7.50046H73.3677ZM75.578 6.00081H76.3148V5.25081H75.578V6.00081ZM77.7885 4.4993H78.5253V3.74981H77.7885V4.49947V4.4993ZM77.7885 19.5004H78.5253V18.7502H77.7885V19.5004ZM73.3677 16.5006H74.1043V15.7511H73.3679V16.5009V16.5006H73.3677ZM75.5779 18.0006H76.3146V17.2504H75.578L75.5779 18.0006ZM73.3679 19.5006H74.1045V18.7504H73.3679V19.5006ZM86.6308 10.5003H87.3676V9.75011H86.6308V10.5003ZM84.4206 12.0001H85.1574V11.2499H84.4203L84.4206 12.0001ZM86.6308 13.4999H87.3676V12.7503H86.6308V13.4999ZM79.9998 6.00064H80.7366V5.25064H79.9997V6.00081L79.9998 6.00064ZM82.2102 4.4993H82.9469V3.74981H82.2102V4.49947V4.4993ZM77.7884 7.50063H78.5251V6.75046H77.7885L77.7884 7.50063ZM82.2102 7.50063H82.9469V6.75046H82.2102V7.50063ZM84.4205 6.00097H85.1572V5.25098H84.4203V6.00114L84.4205 6.00097ZM79.9998 9.00028H80.7366V8.25062H79.9997L79.9998 9.00028ZM84.4205 9.00028H85.1572V8.25062H84.4203L84.4205 9.00028ZM86.6306 7.50046H87.3674V6.7503H86.6306V7.50046ZM82.21 10.5008H82.9469V9.75061H82.2102L82.21 10.5008ZM78.5253 15.7506H77.7884V16.5007H78.5251L78.5253 15.7506ZM80.7364 17.2507H79.9997V18.0006H80.7366V17.2507H80.7364ZM82.2103 19.5004H82.9469V18.7506H82.2102L82.2103 19.5004ZM75.5777 15.0011H76.3145V14.2509H75.578V15.0011H75.5777ZM84.4205 18.0006H85.1572V17.2504H84.4203L84.4205 18.0006ZM86.6306 16.5004H87.3674V15.7509H86.6306V16.5004ZM86.6306 19.5006H87.3674V18.7504H86.6306V19.5006ZM73.3677 10.5003H74.1043V9.75011H73.3679V10.5003H73.3677ZM75.5779 8.99994H76.3146V8.25062H75.578V9.00028L75.5779 8.99994ZM86.6306 4.49947H87.3674V3.74981H86.6306V4.49947ZM75.5779 12.0001H76.3146V11.2503H75.578L75.5779 12.0001ZM77.7885 10.5006H78.5253V9.75045H77.7885V10.5006ZM73.3679 13.5003H74.1045V12.7504H73.3679V13.5003ZM84.4206 15.0013H85.1574V14.2511H84.4203L84.4206 15.0013ZM82.2103 16.5007H82.9471V15.7513H82.2103V16.5007ZM81.4732 11.9999H80.7368V10.5001H79.2631V11.9999H78.5263V12.7499H77.0527V14.2497H78.5265V14.9997H79.2631V16.4996H80.7366V14.9999H81.4732V14.2497H82.9469V12.7499H81.4734V11.9999H81.4732ZM80.7369 14.2497H79.2632V12.7499H80.7368L80.7369 14.2497ZM88.8423 9.00062H89.5789V8.25079H88.8423V9.00062ZM88.8423 12.0003H89.5789V11.2503H88.8423V12.0003ZM88.8423 15.0013H89.5789V14.2511H88.8423V15.0013ZM88.8423 18.0009H89.5789V17.2507H88.8423V18.0009ZM89.5789 5.25098H88.8423V6.00114H89.5789V5.25098ZM92.5263 1.50016H91.7895V0.000337289H90.316V1.50016H89.579V2.25015H88.1055V3.75015H89.579V4.4998H90.316V5.99996H91.7895V4.49964H92.5263V3.74998H93.9998V2.24999H92.5263V1.50016ZM91.7895 3.74981H90.316V2.24982H91.7895V3.74981ZM71.1572 6.00047H71.894V5.25081H71.1574V6.00097V6.00047H71.1572ZM69.6837 6.75046H68.9461V7.50063H69.6837V6.75046ZM71.1576 9.00028H71.894V8.25062H71.1574L71.1576 9.00028ZM68.9459 10.5004H69.6835V9.75028H68.9459V10.5004ZM68.9459 13.5001H69.6835V12.7503H68.9459V13.5001ZM71.1572 12.0001H71.8938V11.2503H71.1572V12.0001ZM68.9463 19.5009H69.6839V18.7507H68.9463V19.5009ZM71.1574 15.0014H71.8938V14.2513H71.1571L71.1574 15.0014ZM68.9463 16.5007H69.6839V15.7513H68.9463V16.5007ZM71.1574 18.0011H71.8937V17.2509H71.1571L71.1574 18.0011ZM70.4201 1.49965H69.6839V0H68.2102V1.49982H67.4735V2.24982H66V3.74981H67.4737V4.4993H68.2105V5.99946H69.684V4.49913H70.421V3.74998H71.8947V2.24999H70.4211V1.49999H70.4201V1.49965ZM69.6839 3.74981H68.2102V2.24982H69.6837V3.74981H69.6839ZM75.578 21.0005H76.3148V20.2504H75.578V21.0005ZM77.7885 22.5002H78.5253V21.7502H77.7885V22.5002ZM79.9998 21.0005H80.7368V20.2504H79.9997L79.9998 21.0005ZM79.9998 24.0012H80.7368V23.2515H79.9997L79.9998 24.0012ZM75.578 24.0012H76.3148V23.2515H75.578V24.0012ZM73.3679 22.5002H74.1045V21.7502H73.3679V22.5002ZM84.4206 21.0005H85.1574V20.2504H84.4203L84.4206 21.0005ZM82.2103 22.5002H82.9471V21.7502H82.2103V22.5002ZM86.6308 22.5002H87.3676V21.7502H86.6308V22.5002ZM84.4206 24.0012H85.1574V23.2515H84.4203L84.4206 24.0012ZM88.8424 21.0005H89.579V20.2504H88.8424V21.0005ZM92.5265 22.5004H91.7897V21.0007H90.3161V22.5004H89.5792V23.2504H88.1057V24.75H89.5792V25.5002H90.3161V27H91.7897V25.5002H92.5265V24.75H94V23.2504H92.5265V22.5004ZM91.7897 24.75H90.3161V23.2504H91.7897V24.75ZM71.1572 21.0005H71.894V20.2504H71.1574V21.0005H71.1572ZM70.4206 22.5004H69.6839V21.0007H68.2102V22.5004H67.4735V23.2504H66V24.75H67.4737V25.5002H68.2105V27H69.684V25.5002H70.421V24.75H71.8947V23.2504H70.4211V22.5004H70.4206ZM69.6839 24.75H68.2102V23.2504H69.6837V24.75H69.6839Z" fill="#F7ECDC"/>
<path d="M249.368 4.49964H250.104V3.74981H249.368V4.49964H249.368ZM249.368 7.50046H250.104V6.7503H249.368V7.50046H249.368ZM251.578 6.00081H252.315V5.25081H251.578V6.00081ZM253.789 4.4993H254.525V3.74981H253.789V4.49947V4.4993ZM253.789 19.5004H254.525V18.7502H253.789V19.5004ZM249.368 16.5006H250.104V15.7511H249.368V16.5009V16.5006H249.368ZM251.578 18.0006H252.315V17.2504H251.578L251.578 18.0006ZM249.368 19.5006H250.104V18.7504H249.368V19.5006ZM262.631 10.5003H263.368V9.75011H262.631V10.5003ZM260.421 12.0001H261.157V11.2499H260.42L260.421 12.0001ZM262.631 13.4999H263.368V12.7503H262.631V13.4999ZM256 6.00064H256.737V5.25064H256V6.00081L256 6.00064ZM258.21 4.4993H258.947V3.74981H258.21V4.49947V4.4993ZM253.788 7.50063H254.525V6.75046H253.789L253.788 7.50063ZM258.21 7.50063H258.947V6.75046H258.21V7.50063ZM260.42 6.00097H261.157V5.25098H260.42V6.00114L260.42 6.00097ZM256 9.00028H256.737V8.25062H256L256 9.00028ZM260.42 9.00028H261.157V8.25062H260.42L260.42 9.00028ZM262.631 7.50046H263.367V6.7503H262.631V7.50046ZM258.21 10.5008H258.947V9.75061H258.21L258.21 10.5008ZM254.525 15.7506H253.788V16.5007H254.525L254.525 15.7506ZM256.736 17.2507H256V18.0006H256.737V17.2507H256.736ZM258.21 19.5004H258.947V18.7506H258.21L258.21 19.5004ZM251.578 15.0011H252.314V14.2509H251.578V15.0011H251.578ZM260.42 18.0006H261.157V17.2504H260.42L260.42 18.0006ZM262.631 16.5004H263.367V15.7509H262.631V16.5004ZM262.631 19.5006H263.367V18.7504H262.631V19.5006ZM249.368 10.5003H250.104V9.75011H249.368V10.5003H249.368ZM251.578 8.99994H252.315V8.25062H251.578V9.00028L251.578 8.99994ZM262.631 4.49947H263.367V3.74981H262.631V4.49947ZM251.578 12.0001H252.315V11.2503H251.578L251.578 12.0001ZM253.789 10.5006H254.525V9.75045H253.789V10.5006ZM249.368 13.5003H250.104V12.7504H249.368V13.5003ZM260.421 15.0013H261.157V14.2511H260.42L260.421 15.0013ZM258.21 16.5007H258.947V15.7513H258.21V16.5007ZM257.473 11.9999H256.737V10.5001H255.263V11.9999H254.526V12.7499H253.053V14.2497H254.526V14.9997H255.263V16.4996H256.737V14.9999H257.473V14.2497H258.947V12.7499H257.473V11.9999H257.473ZM256.737 14.2497H255.263V12.7499H256.737L256.737 14.2497ZM264.842 9.00062H265.579V8.25079H264.842V9.00062ZM264.842 12.0003H265.579V11.2503H264.842V12.0003ZM264.842 15.0013H265.579V14.2511H264.842V15.0013ZM264.842 18.0009H265.579V17.2507H264.842V18.0009ZM265.579 5.25098H264.842V6.00114H265.579V5.25098ZM268.526 1.50016H267.79V0.000337289H266.316V1.50016H265.579V2.25015H264.105V3.75015H265.579V4.4998H266.316V5.99996H267.79V4.49964H268.526V3.74998H270V2.24999H268.526V1.50016ZM267.79 3.74981H266.316V2.24982H267.79V3.74981ZM247.157 6.00047H247.894V5.25081H247.157V6.00097V6.00047H247.157ZM245.684 6.75046H244.946V7.50063H245.684V6.75046ZM247.158 9.00028H247.894V8.25062H247.157L247.158 9.00028ZM244.946 10.5004H245.684V9.75028H244.946V10.5004ZM244.946 13.5001H245.684V12.7503H244.946V13.5001ZM247.157 12.0001H247.894V11.2503H247.157V12.0001ZM244.946 19.5009H245.684V18.7507H244.946V19.5009ZM247.157 15.0014H247.894V14.2513H247.157L247.157 15.0014ZM244.946 16.5007H245.684V15.7513H244.946V16.5007ZM247.157 18.0011H247.894V17.2509H247.157L247.157 18.0011ZM246.42 1.49965H245.684V0H244.21V1.49982H243.474V2.24982H242V3.74981H243.474V4.4993H244.21V5.99946H245.684V4.49913H246.421V3.74998H247.895V2.24999H246.421V1.49999H246.42V1.49965ZM245.684 3.74981H244.21V2.24982H245.684V3.74981H245.684ZM251.578 21.0005H252.315V20.2504H251.578V21.0005ZM253.789 22.5002H254.525V21.7502H253.789V22.5002ZM256 21.0005H256.737V20.2504H256L256 21.0005ZM256 24.0012H256.737V23.2515H256L256 24.0012ZM251.578 24.0012H252.315V23.2515H251.578V24.0012ZM249.368 22.5002H250.104V21.7502H249.368V22.5002ZM260.421 21.0005H261.157V20.2504H260.42L260.421 21.0005ZM258.21 22.5002H258.947V21.7502H258.21V22.5002ZM262.631 22.5002H263.368V21.7502H262.631V22.5002ZM260.421 24.0012H261.157V23.2515H260.42L260.421 24.0012ZM264.842 21.0005H265.579V20.2504H264.842V21.0005ZM268.526 22.5004H267.79V21.0007H266.316V22.5004H265.579V23.2504H264.106V24.75H265.579V25.5002H266.316V27H267.79V25.5002H268.526V24.75H270V23.2504H268.526V22.5004ZM267.79 24.75H266.316V23.2504H267.79V24.75ZM247.157 21.0005H247.894V20.2504H247.157V21.0005H247.157ZM246.421 22.5004H245.684V21.0007H244.21V22.5004H243.474V23.2504H242V24.75H243.474V25.5002H244.21V27H245.684V25.5002H246.421V24.75H247.895V23.2504H246.421V22.5004H246.421ZM245.684 24.75H244.21V23.2504H245.684V24.75H245.684Z" fill="#F7ECDC"/>
<path d="M161.368 4.49964H162.104V3.74981H161.368V4.49964H161.368ZM161.368 7.50046H162.104V6.7503H161.368V7.50046H161.368ZM163.578 6.00081H164.315V5.25081H163.578V6.00081ZM165.789 4.4993H166.525V3.74981H165.789V4.49947V4.4993ZM165.789 19.5004H166.525V18.7502H165.789V19.5004ZM161.368 16.5006H162.104V15.7511H161.368V16.5009V16.5006H161.368ZM163.578 18.0006H164.315V17.2504H163.578L163.578 18.0006ZM161.368 19.5006H162.104V18.7504H161.368V19.5006ZM174.631 10.5003H175.368V9.75011H174.631V10.5003ZM172.421 12.0001H173.157V11.2499H172.42L172.421 12.0001ZM174.631 13.4999H175.368V12.7503H174.631V13.4999ZM168 6.00064H168.737V5.25064H168V6.00081L168 6.00064ZM170.21 4.4993H170.947V3.74981H170.21V4.49947V4.4993ZM165.788 7.50063H166.525V6.75046H165.789L165.788 7.50063ZM170.21 7.50063H170.947V6.75046H170.21V7.50063ZM172.42 6.00097H173.157V5.25098H172.42V6.00114L172.42 6.00097ZM168 9.00028H168.737V8.25062H168L168 9.00028ZM172.42 9.00028H173.157V8.25062H172.42L172.42 9.00028ZM174.631 7.50046H175.367V6.7503H174.631V7.50046ZM170.21 10.5008H170.947V9.75061H170.21L170.21 10.5008ZM166.525 15.7506H165.788V16.5007H166.525L166.525 15.7506ZM168.736 17.2507H168V18.0006H168.737V17.2507H168.736ZM170.21 19.5004H170.947V18.7506H170.21L170.21 19.5004ZM163.578 15.0011H164.314V14.2509H163.578V15.0011H163.578ZM172.42 18.0006H173.157V17.2504H172.42L172.42 18.0006ZM174.631 16.5004H175.367V15.7509H174.631V16.5004ZM174.631 19.5006H175.367V18.7504H174.631V19.5006ZM161.368 10.5003H162.104V9.75011H161.368V10.5003H161.368ZM163.578 8.99994H164.315V8.25062H163.578V9.00028L163.578 8.99994ZM174.631 4.49947H175.367V3.74981H174.631V4.49947ZM163.578 12.0001H164.315V11.2503H163.578L163.578 12.0001ZM165.789 10.5006H166.525V9.75045H165.789V10.5006ZM161.368 13.5003H162.104V12.7504H161.368V13.5003ZM172.421 15.0013H173.157V14.2511H172.42L172.421 15.0013ZM170.21 16.5007H170.947V15.7513H170.21V16.5007ZM169.473 11.9999H168.737V10.5001H167.263V11.9999H166.526V12.7499H165.053V14.2497H166.526V14.9997H167.263V16.4996H168.737V14.9999H169.473V14.2497H170.947V12.7499H169.473V11.9999H169.473ZM168.737 14.2497H167.263V12.7499H168.737L168.737 14.2497ZM176.842 9.00062H177.579V8.25079H176.842V9.00062ZM176.842 12.0003H177.579V11.2503H176.842V12.0003ZM176.842 15.0013H177.579V14.2511H176.842V15.0013ZM176.842 18.0009H177.579V17.2507H176.842V18.0009ZM177.579 5.25098H176.842V6.00114H177.579V5.25098ZM180.526 1.50016H179.79V0.000337289H178.316V1.50016H177.579V2.25015H176.105V3.75015H177.579V4.4998H178.316V5.99996H179.79V4.49964H180.526V3.74998H182V2.24999H180.526V1.50016ZM179.79 3.74981H178.316V2.24982H179.79V3.74981ZM159.157 6.00047H159.894V5.25081H159.157V6.00097V6.00047H159.157ZM157.684 6.75046H156.946V7.50063H157.684V6.75046ZM159.158 9.00028H159.894V8.25062H159.157L159.158 9.00028ZM156.946 10.5004H157.684V9.75028H156.946V10.5004ZM156.946 13.5001H157.684V12.7503H156.946V13.5001ZM159.157 12.0001H159.894V11.2503H159.157V12.0001ZM156.946 19.5009H157.684V18.7507H156.946V19.5009ZM159.157 15.0014H159.894V14.2513H159.157L159.157 15.0014ZM156.946 16.5007H157.684V15.7513H156.946V16.5007ZM159.157 18.0011H159.894V17.2509H159.157L159.157 18.0011ZM158.42 1.49965H157.684V0H156.21V1.49982H155.474V2.24982H154V3.74981H155.474V4.4993H156.21V5.99946H157.684V4.49913H158.421V3.74998H159.895V2.24999H158.421V1.49999H158.42V1.49965ZM157.684 3.74981H156.21V2.24982H157.684V3.74981H157.684ZM163.578 21.0005H164.315V20.2504H163.578V21.0005ZM165.789 22.5002H166.525V21.7502H165.789V22.5002ZM168 21.0005H168.737V20.2504H168L168 21.0005ZM168 24.0012H168.737V23.2515H168L168 24.0012ZM163.578 24.0012H164.315V23.2515H163.578V24.0012ZM161.368 22.5002H162.104V21.7502H161.368V22.5002ZM172.421 21.0005H173.157V20.2504H172.42L172.421 21.0005ZM170.21 22.5002H170.947V21.7502H170.21V22.5002ZM174.631 22.5002H175.368V21.7502H174.631V22.5002ZM172.421 24.0012H173.157V23.2515H172.42L172.421 24.0012ZM176.842 21.0005H177.579V20.2504H176.842V21.0005ZM180.526 22.5004H179.79V21.0007H178.316V22.5004H177.579V23.2504H176.106V24.75H177.579V25.5002H178.316V27H179.79V25.5002H180.526V24.75H182V23.2504H180.526V22.5004ZM179.79 24.75H178.316V23.2504H179.79V24.75ZM159.157 21.0005H159.894V20.2504H159.157V21.0005H159.157ZM158.421 22.5004H157.684V21.0007H156.21V22.5004H155.474V23.2504H154V24.75H155.474V25.5002H156.21V27H157.684V25.5002H158.421V24.75H159.895V23.2504H158.421V22.5004H158.421ZM157.684 24.75H156.21V23.2504H157.684V24.75H157.684Z" fill="#F7ECDC"/>
<path d="M337.368 4.49964H338.104V3.74981H337.368V4.49964H337.368ZM337.368 7.50046H338.104V6.7503H337.368V7.50046H337.368ZM339.578 6.00081H340.315V5.25081H339.578V6.00081ZM341.789 4.4993H342.525V3.74981H341.789V4.49947V4.4993ZM341.789 19.5004H342.525V18.7502H341.789V19.5004ZM337.368 16.5006H338.104V15.7511H337.368V16.5009V16.5006H337.368ZM339.578 18.0006H340.315V17.2504H339.578L339.578 18.0006ZM337.368 19.5006H338.104V18.7504H337.368V19.5006ZM350.631 10.5003H351.368V9.75011H350.631V10.5003ZM348.421 12.0001H349.157V11.2499H348.42L348.421 12.0001ZM350.631 13.4999H351.368V12.7503H350.631V13.4999ZM344 6.00064H344.737V5.25064H344V6.00081L344 6.00064ZM346.21 4.4993H346.947V3.74981H346.21V4.49947V4.4993ZM341.788 7.50063H342.525V6.75046H341.789L341.788 7.50063ZM346.21 7.50063H346.947V6.75046H346.21V7.50063ZM348.42 6.00097H349.157V5.25098H348.42V6.00114L348.42 6.00097ZM344 9.00028H344.737V8.25062H344L344 9.00028ZM348.42 9.00028H349.157V8.25062H348.42L348.42 9.00028ZM350.631 7.50046H351.367V6.7503H350.631V7.50046ZM346.21 10.5008H346.947V9.75061H346.21L346.21 10.5008ZM342.525 15.7506H341.788V16.5007H342.525L342.525 15.7506ZM344.736 17.2507H344V18.0006H344.737V17.2507H344.736ZM346.21 19.5004H346.947V18.7506H346.21L346.21 19.5004ZM339.578 15.0011H340.314V14.2509H339.578V15.0011H339.578ZM348.42 18.0006H349.157V17.2504H348.42L348.42 18.0006ZM350.631 16.5004H351.367V15.7509H350.631V16.5004ZM350.631 19.5006H351.367V18.7504H350.631V19.5006ZM337.368 10.5003H338.104V9.75011H337.368V10.5003H337.368ZM339.578 8.99994H340.315V8.25062H339.578V9.00028L339.578 8.99994ZM350.631 4.49947H351.367V3.74981H350.631V4.49947ZM339.578 12.0001H340.315V11.2503H339.578L339.578 12.0001ZM341.789 10.5006H342.525V9.75045H341.789V10.5006ZM337.368 13.5003H338.104V12.7504H337.368V13.5003ZM348.421 15.0013H349.157V14.2511H348.42L348.421 15.0013ZM346.21 16.5007H346.947V15.7513H346.21V16.5007ZM345.473 11.9999H344.737V10.5001H343.263V11.9999H342.526V12.7499H341.053V14.2497H342.526V14.9997H343.263V16.4996H344.737V14.9999H345.473V14.2497H346.947V12.7499H345.473V11.9999H345.473ZM344.737 14.2497H343.263V12.7499H344.737L344.737 14.2497ZM352.842 9.00062H353.579V8.25079H352.842V9.00062ZM352.842 12.0003H353.579V11.2503H352.842V12.0003ZM352.842 15.0013H353.579V14.2511H352.842V15.0013ZM352.842 18.0009H353.579V17.2507H352.842V18.0009ZM353.579 5.25098H352.842V6.00114H353.579V5.25098ZM356.526 1.50016H355.79V0.000337289H354.316V1.50016H353.579V2.25015H352.105V3.75015H353.579V4.4998H354.316V5.99996H355.79V4.49964H356.526V3.74998H358V2.24999H356.526V1.50016ZM355.79 3.74981H354.316V2.24982H355.79V3.74981ZM335.157 6.00047H335.894V5.25081H335.157V6.00097V6.00047H335.157ZM333.684 6.75046H332.946V7.50063H333.684V6.75046ZM335.158 9.00028H335.894V8.25062H335.157L335.158 9.00028ZM332.946 10.5004H333.684V9.75028H332.946V10.5004ZM332.946 13.5001H333.684V12.7503H332.946V13.5001ZM335.157 12.0001H335.894V11.2503H335.157V12.0001ZM332.946 19.5009H333.684V18.7507H332.946V19.5009ZM335.157 15.0014H335.894V14.2513H335.157L335.157 15.0014ZM332.946 16.5007H333.684V15.7513H332.946V16.5007ZM335.157 18.0011H335.894V17.2509H335.157L335.157 18.0011ZM334.42 1.49965H333.684V0H332.21V1.49982H331.474V2.24982H330V3.74981H331.474V4.4993H332.21V5.99946H333.684V4.49913H334.421V3.74998H335.895V2.24999H334.421V1.49999H334.42V1.49965ZM333.684 3.74981H332.21V2.24982H333.684V3.74981H333.684ZM339.578 21.0005H340.315V20.2504H339.578V21.0005ZM341.789 22.5002H342.525V21.7502H341.789V22.5002ZM344 21.0005H344.737V20.2504H344L344 21.0005ZM344 24.0012H344.737V23.2515H344L344 24.0012ZM339.578 24.0012H340.315V23.2515H339.578V24.0012ZM337.368 22.5002H338.104V21.7502H337.368V22.5002ZM348.421 21.0005H349.157V20.2504H348.42L348.421 21.0005ZM346.21 22.5002H346.947V21.7502H346.21V22.5002ZM350.631 22.5002H351.368V21.7502H350.631V22.5002ZM348.421 24.0012H349.157V23.2515H348.42L348.421 24.0012ZM352.842 21.0005H353.579V20.2504H352.842V21.0005ZM356.526 22.5004H355.79V21.0007H354.316V22.5004H353.579V23.2504H352.106V24.75H353.579V25.5002H354.316V27H355.79V25.5002H356.526V24.75H358V23.2504H356.526V22.5004ZM355.79 24.75H354.316V23.2504H355.79V24.75ZM335.157 21.0005H335.894V20.2504H335.157V21.0005H335.157ZM334.421 22.5004H333.684V21.0007H332.21V22.5004H331.474V23.2504H330V24.75H331.474V25.5002H332.21V27H333.684V25.5002H334.421V24.75H335.895V23.2504H334.421V22.5004H334.421ZM333.684 24.75H332.21V23.2504H333.684V24.75H333.684Z" fill="#F7ECDC"/>
</svg>
